<svg xmlns="http://www.w3.org/2000/svg" xmlns:xlink="http://www.w3.org/1999/xlink" id="terminal" baseProfile="full" viewBox="0 0 640 427" width="640" version="1.1">
    <defs>
        <termtosvg:template_settings xmlns:termtosvg="https://github.com/nbedos/termtosvg">
            <termtosvg:screen_geometry columns="80" rows="25"/>
            <termtosvg:animation type="css"/>
        </termtosvg:template_settings>
        <style type="text/css" id="generated-style"><![CDATA[#screen {
                font-family: 'DejaVu Sans Mono', monospace;
                font-style: normal;
                font-size: 14px;
            }

        text {
            dominant-baseline: text-before-edge;
            white-space: pre;
        }
    
            :root {
                --animation-duration: 12754ms;
            }

            @keyframes roll {
                0.000%{transform:translateY(0px)}
4.359%{transform:translateY(-442px)}
4.995%{transform:translateY(-884px)}
6.014%{transform:translateY(-1326px)}
6.923%{transform:translateY(-1768px)}
7.958%{transform:translateY(-2210px)}
8.680%{transform:translateY(-2652px)}
9.597%{transform:translateY(-3094px)}
11.095%{transform:translateY(-3536px)}
12.106%{transform:translateY(-3978px)}
13.596%{transform:translateY(-4420px)}
14.129%{transform:translateY(-4862px)}
14.152%{transform:translateY(-5304px)}
14.168%{transform:translateY(-5746px)}
14.184%{transform:translateY(-6188px)}
14.199%{transform:translateY(-6630px)}
14.215%{transform:translateY(-7072px)}
14.223%{transform:translateY(-7514px)}
14.231%{transform:translateY(-7956px)}
14.239%{transform:translateY(-8398px)}
14.270%{transform:translateY(-8840px)}
14.976%{transform:translateY(-9282px)}
15.572%{transform:translateY(-9724px)}
16.959%{transform:translateY(-10166px)}
18.669%{transform:translateY(-10608px)}
19.672%{transform:translateY(-11050px)}
20.527%{transform:translateY(-11492px)}
21.679%{transform:translateY(-11934px)}
23.208%{transform:translateY(-12376px)}
24.753%{transform:translateY(-12818px)}
25.921%{transform:translateY(-13260px)}
27.936%{transform:translateY(-13702px)}
29.324%{transform:translateY(-14144px)}
30.759%{transform:translateY(-14586px)}
31.449%{transform:translateY(-15028px)}
33.284%{transform:translateY(-15470px)}
39.431%{transform:translateY(-15912px)}
39.454%{transform:translateY(-16354px)}
39.462%{transform:translateY(-16796px)}
39.517%{transform:translateY(-17238px)}
39.525%{transform:translateY(-17680px)}
39.674%{transform:translateY(-18122px)}
39.682%{transform:translateY(-18564px)}
39.705%{transform:translateY(-19006px)}
45.891%{transform:translateY(-19448px)}
47.224%{transform:translateY(-19890px)}
47.977%{transform:translateY(-20332px)}
49.663%{transform:translateY(-20774px)}
50.596%{transform:translateY(-21216px)}
51.929%{transform:translateY(-21658px)}
54.689%{transform:translateY(-22100px)}
55.528%{transform:translateY(-22542px)}
57.339%{transform:translateY(-22984px)}
58.538%{transform:translateY(-23426px)}
59.660%{transform:translateY(-23868px)}
62.725%{transform:translateY(-24310px)}
62.890%{transform:translateY(-24752px)}
68.731%{transform:translateY(-25194px)}
68.755%{transform:translateY(-25636px)}
68.771%{transform:translateY(-26078px)}
68.982%{transform:translateY(-26520px)}
68.998%{transform:translateY(-26962px)}
69.163%{transform:translateY(-27404px)}
69.178%{transform:translateY(-27846px)}
72.769%{transform:translateY(-28288px)}
73.820%{transform:translateY(-28730px)}
74.769%{transform:translateY(-29172px)}
75.835%{transform:translateY(-29614px)}
75.851%{transform:translateY(-30056px)}
75.874%{transform:translateY(-30498px)}
75.898%{transform:translateY(-30940px)}
76.039%{transform:translateY(-31382px)}
76.070%{transform:translateY(-31824px)}
92.159%{transform:translateY(-32266px)}
100.000%{transform:translateY(-32266px)}
            }

            #screen_view {
                animation-duration: 12754ms;
                animation-iteration-count:infinite;
                animation-name:roll;
                animation-timing-function: steps(1,end);
                animation-fill-mode: forwards;
            }
        ]]></style>
        <style type="text/css" id="user-style">
            /* The colors defined below are the default 16 colors used for rendering text of the terminal. Adjust
               them as needed.
               PowerShell colors based on https://en.wikipedia.org/wiki/ANSI_escape_code#Colors */
            .foreground {fill: #cccccc;}
            .background {fill: #0c0c0c;}
            .color0 {fill: #0c0c0c;}
            .color1 {fill: #c50f1f;}
            .color2 {fill: #13a10e;}
            .color3 {fill: #c19c00;}
            .color4 {fill: #0037da;}
            .color5 {fill: #881798;}
            .color6 {fill: #3a96dd;}
            .color7 {fill: #cccccc;}
            .color8 {fill: #767676;}
            .color9 {fill: #e74856;}
            .color10 {fill: #16c60c;}
            .color11 {fill: #f9f1a5;}
            .color12 {fill: #3b78ff;}
            .color13 {fill: #b4009e;}
            .color14 {fill: #61d6d6;}
            .color15 {fill: #f2f2f2;}
        </style>
    </defs>
    <svg id="screen" width="640" height="425" viewBox="0 0 640 425" preserveAspectRatio="xMidYMin slice">
    <rect class="background" height="100%" width="100%" x="0" y="0"/><defs><g id="g1"><text x="0" textLength="8" fill="#0087af"> </text><text x="8" textLength="8" font-weight="bold" fill="#00afff">~</text><text x="16" textLength="8" fill="#0087af"> </text><text x="24" textLength="608" fill="#585858">----------------------------------------------------------------------------</text><text x="632" textLength="8" class="foreground"> </text></g><g id="g2"><text x="0" textLength="8" fill="#5fd700">&gt;</text><text x="8" textLength="8" class="foreground"> </text><text x="16" textLength="8" class="background"> </text></g><g id="g3"><text x="0" textLength="8" fill="#5fd700">&gt;</text><text x="8" textLength="16" class="foreground"> m</text><text x="24" textLength="8" class="background"> </text></g><g id="g4"><text x="0" textLength="8" fill="#5fd700">&gt;</text><text x="8" textLength="24" class="foreground"> mk</text><text x="32" textLength="8" class="background"> </text></g><g id="g5"><text x="0" textLength="8" fill="#5fd700">&gt;</text><text x="8" textLength="32" class="foreground"> mkd</text><text x="40" textLength="8" class="background"> </text></g><g id="g6"><text x="0" textLength="8" fill="#5fd700">&gt;</text><text x="8" textLength="40" class="foreground"> mkdi</text><text x="48" textLength="8" class="background"> </text></g><g id="g7"><text x="0" textLength="8" fill="#5fd700">&gt;</text><text x="8" textLength="48" class="foreground"> mkdir</text><text x="56" textLength="8" class="background"> </text></g><g id="g8"><text x="0" textLength="8" fill="#5fd700">&gt;</text><text x="8" textLength="56" class="foreground"> mkdir </text><text x="64" textLength="8" class="background"> </text></g><g id="g9"><text x="0" textLength="8" fill="#5fd700">&gt;</text><text x="8" textLength="64" class="foreground"> mkdir -</text><text x="72" textLength="8" class="background"> </text></g><g id="g10"><text x="0" textLength="8" fill="#5fd700">&gt;</text><text x="8" textLength="72" class="foreground"> mkdir -p</text><text x="80" textLength="8" class="background"> </text></g><g id="g11"><text x="0" textLength="8" fill="#5fd700">&gt;</text><text x="8" textLength="80" class="foreground"> mkdir -p </text><text x="88" textLength="8" class="background"> </text></g><g id="g12"><text x="0" textLength="8" fill="#5fd700">&gt;</text><text x="8" textLength="88" class="foreground"> mkdir -p /</text><text x="96" textLength="8" class="background"> </text></g><g id="g13"><text x="0" textLength="8" class="background"> </text><text x="8" textLength="632" class="foreground">                                                                               </text></g><g id="g14"><text x="0" textLength="96" class="foreground">            </text></g><g id="g15"><text x="0" textLength="8" fill="#5fd700">&gt;</text><text x="8" textLength="8" class="foreground"> </text><text x="16" textLength="8" class="background"> </text><text x="24" textLength="616" class="foreground">                                                                             </text></g><g id="g16"><text x="0" textLength="8" fill="#5fd700">&gt;</text><text x="8" textLength="24" class="foreground"> mk</text><text x="32" textLength="8" class="background"> </text><text x="40" textLength="600" class="foreground">                                                                           </text></g><g id="g17"><text x="0" textLength="8" fill="#5fd700">&gt;</text><text x="8" textLength="40" class="foreground"> mkdi</text><text x="48" textLength="8" class="background"> </text><text x="56" textLength="584" class="foreground">                                                                         </text></g><g id="g18"><text x="0" textLength="8" fill="#5fd700">&gt;</text><text x="8" textLength="56" class="foreground"> mkdir </text><text x="64" textLength="8" class="background"> </text><text x="72" textLength="568" class="foreground">                                                                       </text></g><g id="g19"><text x="0" textLength="8" fill="#5fd700">&gt;</text><text x="8" textLength="72" class="foreground"> mkdir -p</text><text x="80" textLength="8" class="background"> </text><text x="88" textLength="552" class="foreground">                                                                     </text></g><g id="g20"><text x="0" textLength="8" fill="#5fd700">&gt;</text><text x="8" textLength="80" class="foreground"> mkdir -p </text><text x="88" textLength="8" class="background"> </text><text x="96" textLength="544" class="foreground">                                                                    </text></g><g id="g21"><text x="0" textLength="8" fill="#5fd700">&gt;</text><text x="8" textLength="8" class="foreground"> </text><text x="16" textLength="40" class="color2">mkdir</text><text x="56" textLength="8" class="foreground"> </text><text x="64" textLength="16" class="color6">-p</text><text x="80" textLength="8" class="foreground"> </text><text x="88" textLength="8" text-decoration="underline" class="color5">/</text><text x="96" textLength="8" class="background"> </text><text x="104" textLength="536" class="foreground">                                                                   </text></g><g id="g22"><text x="0" textLength="8" fill="#5fd700">&gt;</text><text x="8" textLength="8" class="foreground"> </text><text x="16" textLength="40" class="color2">mkdir</text><text x="56" textLength="8" class="foreground"> </text><text x="64" textLength="16" class="color6">-p</text><text x="80" textLength="24" class="foreground"> /t</text><text x="104" textLength="8" class="background"> </text><text x="112" textLength="528" class="foreground">                                                                  </text></g><g id="g23"><text x="0" textLength="8" fill="#5fd700">&gt;</text><text x="8" textLength="8" class="foreground"> </text><text x="16" textLength="40" class="color2">mkdir</text><text x="56" textLength="8" class="foreground"> </text><text x="64" textLength="16" class="color6">-p</text><text x="80" textLength="32" class="foreground"> /tm</text><text x="112" textLength="8" class="background"> </text><text x="120" textLength="520" class="foreground">                                                                 </text></g><g id="g24"><text x="0" textLength="8" fill="#5fd700">&gt;</text><text x="8" textLength="8" class="foreground"> </text><text x="16" textLength="40" class="color2">mkdir</text><text x="56" textLength="8" class="foreground"> </text><text x="64" textLength="16" class="color6">-p</text><text x="80" textLength="8" class="foreground"> </text><text x="88" textLength="32" text-decoration="underline" class="color5">/tmp</text><text x="120" textLength="8" class="background"> </text><text x="128" textLength="512" class="foreground">                                                                </text></g><g id="g25"><text x="0" textLength="8" fill="#5fd700">&gt;</text><text x="8" textLength="8" class="foreground"> </text><text x="16" textLength="40" class="color2">mkdir</text><text x="56" textLength="8" class="foreground"> </text><text x="64" textLength="16" class="color6">-p</text><text x="80" textLength="8" class="foreground"> </text><text x="88" textLength="40" text-decoration="underline" class="color5">/tmp/</text><text x="128" textLength="8" class="background"> </text><text x="136" textLength="504" class="foreground">                                                               </text></g><g id="g26"><text x="0" textLength="8" fill="#5fd700">&gt;</text><text x="8" textLength="8" class="foreground"> </text><text x="16" textLength="40" class="color2">mkdir</text><text x="56" textLength="8" class="foreground"> </text><text x="64" textLength="16" class="color6">-p</text><text x="80" textLength="56" class="foreground"> /tmp/f</text><text x="136" textLength="8" class="background"> </text><text x="144" textLength="496" class="foreground">                                                              </text></g><g id="g27"><text x="0" textLength="8" fill="#5fd700">&gt;</text><text x="8" textLength="8" class="foreground"> </text><text x="16" textLength="40" class="color2">mkdir</text><text x="56" textLength="8" class="foreground"> </text><text x="64" textLength="16" class="color6">-p</text><text x="80" textLength="64" class="foreground"> /tmp/fo</text><text x="144" textLength="8" class="background"> </text><text x="152" textLength="488" class="foreground">                                                             </text></g><g id="g28"><text x="0" textLength="8" fill="#5fd700">&gt;</text><text x="8" textLength="8" class="foreground"> </text><text x="16" textLength="40" class="color2">mkdir</text><text x="56" textLength="8" class="foreground"> </text><text x="64" textLength="16" class="color6">-p</text><text x="80" textLength="8" class="foreground"> </text><text x="88" textLength="64" text-decoration="underline" class="color5">/tmp/foo</text><text x="152" textLength="8" class="background"> </text><text x="160" textLength="480" class="foreground">                                                            </text></g><g id="g29"><text x="0" textLength="8" fill="#5fd700">&gt;</text><text x="8" textLength="8" class="foreground"> </text><text x="16" textLength="40" class="color2">mkdir</text><text x="56" textLength="8" class="foreground"> </text><text x="64" textLength="16" class="color6">-p</text><text x="80" textLength="8" class="foreground"> </text><text x="88" textLength="72" text-decoration="underline" class="color5">/tmp/foo/</text><text x="160" textLength="8" class="background"> </text><text x="168" textLength="472" class="foreground">                                                           </text></g><g id="g30"><text x="0" textLength="8" fill="#5fd700">&gt;</text><text x="8" textLength="8" class="foreground"> </text><text x="16" textLength="40" class="color2">mkdir</text><text x="56" textLength="8" class="foreground"> </text><text x="64" textLength="16" class="color6">-p</text><text x="80" textLength="88" class="foreground"> /tmp/foo/b</text><text x="168" textLength="8" class="background"> </text><text x="176" textLength="464" class="foreground">                                                          </text></g><g id="g31"><text x="0" textLength="8" fill="#5fd700">&gt;</text><text x="8" textLength="8" class="foreground"> </text><text x="16" textLength="40" class="color2">mkdir</text><text x="56" textLength="8" class="foreground"> </text><text x="64" textLength="16" class="color6">-p</text><text x="80" textLength="96" class="foreground"> /tmp/foo/ba</text><text x="176" textLength="8" class="background"> </text><text x="184" textLength="456" class="foreground">                                                         </text></g><g id="g32"><text x="0" textLength="8" fill="#5fd700">&gt;</text><text x="8" textLength="8" class="foreground"> </text><text x="16" textLength="40" class="color2">mkdir</text><text x="56" textLength="8" class="foreground"> </text><text x="64" textLength="16" class="color6">-p</text><text x="80" textLength="8" class="foreground"> </text><text x="88" textLength="96" text-decoration="underline" class="color5">/tmp/foo/bar</text><text x="184" textLength="8" class="background"> </text><text x="192" textLength="448" class="foreground">                                                        </text></g><g id="g33"><text x="0" textLength="8" fill="#5fd700">&gt;</text><text x="8" textLength="8" class="foreground"> </text><text x="16" textLength="40" class="color2">mkdir</text><text x="56" textLength="8" class="foreground"> </text><text x="64" textLength="16" class="color6">-p</text><text x="80" textLength="8" class="foreground"> </text><text x="88" textLength="104" text-decoration="underline" class="color5">/tmp/foo/bar/</text><text x="192" textLength="8" class="background"> </text><text x="200" textLength="440" class="foreground">                                                       </text></g><g id="g34"><text x="0" textLength="8" fill="#5fd700">&gt;</text><text x="8" textLength="8" class="foreground"> </text><text x="16" textLength="40" class="color2">mkdir</text><text x="56" textLength="8" class="foreground"> </text><text x="64" textLength="16" class="color6">-p</text><text x="80" textLength="120" class="foreground"> /tmp/foo/bar/b</text><text x="200" textLength="8" class="background"> </text><text x="208" textLength="432" class="foreground">                                                      </text></g><g id="g35"><text x="0" textLength="8" fill="#5fd700">&gt;</text><text x="8" textLength="8" class="foreground"> </text><text x="16" textLength="40" class="color2">mkdir</text><text x="56" textLength="8" class="foreground"> </text><text x="64" textLength="16" class="color6">-p</text><text x="80" textLength="128" class="foreground"> /tmp/foo/bar/ba</text><text x="208" textLength="8" class="background"> </text><text x="216" textLength="424" class="foreground">                                                     </text></g><g id="g36"><text x="0" textLength="8" fill="#5fd700">&gt;</text><text x="8" textLength="8" class="foreground"> </text><text x="16" textLength="40" class="color2">mkdir</text><text x="56" textLength="8" class="foreground"> </text><text x="64" textLength="16" class="color6">-p</text><text x="80" textLength="8" class="foreground"> </text><text x="88" textLength="128" text-decoration="underline" class="color5">/tmp/foo/bar/baz</text><text x="216" textLength="8" class="background"> </text><text x="224" textLength="416" class="foreground">                                                    </text></g><g id="g37"><text x="0" textLength="8" fill="#5fd700">&gt;</text><text x="8" textLength="8" class="foreground"> </text><text x="16" textLength="40" class="color2">mkdir</text><text x="56" textLength="8" class="foreground"> </text><text x="64" textLength="16" class="color6">-p</text><text x="80" textLength="8" class="foreground"> </text><text x="88" textLength="128" text-decoration="underline" class="color5">/tmp/foo/bar/baz</text><text x="216" textLength="424" class="foreground">                                                     </text></g><g id="g38"><text x="0" textLength="8" class="background"> </text></g><g id="g39"><text x="0" textLength="8" fill="#5fd700">&gt;</text><text x="8" textLength="8" class="foreground"> </text><text x="16" textLength="8" font-weight="bold" class="color9">c</text><text x="24" textLength="8" class="background"> </text><text x="32" textLength="608" class="foreground">                                                                            </text></g><g id="g40"><text x="0" textLength="8" fill="#5fd700">&gt;</text><text x="8" textLength="8" class="foreground"> </text><text x="16" textLength="16" class="color2">cd</text><text x="32" textLength="8" class="background"> </text><text x="40" textLength="600" class="foreground">                                                                           </text></g><g id="g41"><text x="0" textLength="8" fill="#5fd700">&gt;</text><text x="8" textLength="8" class="foreground"> </text><text x="16" textLength="16" class="color2">cd</text><text x="32" textLength="8" class="foreground"> </text><text x="40" textLength="8" class="background"> </text><text x="48" textLength="592" class="foreground">                                                                          </text></g><g id="g42"><text x="0" textLength="8" fill="#5fd700">&gt;</text><text x="8" textLength="8" class="foreground"> </text><text x="16" textLength="16" class="color2">cd</text><text x="32" textLength="8" class="foreground"> </text><text x="40" textLength="8" text-decoration="underline" class="color5">/</text><text x="48" textLength="8" class="background"> </text><text x="56" textLength="584" class="foreground">                                                                         </text></g><g id="g43"><text x="0" textLength="8" fill="#5fd700">&gt;</text><text x="8" textLength="8" class="foreground"> </text><text x="16" textLength="16" class="color2">cd</text><text x="32" textLength="24" class="foreground"> /t</text><text x="56" textLength="8" class="background"> </text><text x="64" textLength="576" class="foreground">                                                                        </text></g><g id="g44"><text x="0" textLength="8" fill="#5fd700">&gt;</text><text x="8" textLength="8" class="foreground"> </text><text x="16" textLength="16" class="color2">cd</text><text x="32" textLength="32" class="foreground"> /t/</text><text x="64" textLength="8" class="background"> </text><text x="72" textLength="568" class="foreground">                                                                       </text></g><g id="g45"><text x="0" textLength="8" fill="#5fd700">&gt;</text><text x="8" textLength="8" class="foreground"> </text><text x="16" textLength="16" class="color2">cd</text><text x="32" textLength="40" class="foreground"> /t/f</text><text x="72" textLength="8" class="background"> </text><text x="80" textLength="560" class="foreground">                                                                      </text></g><g id="g46"><text x="0" textLength="8" fill="#5fd700">&gt;</text><text x="8" textLength="8" class="foreground"> </text><text x="16" textLength="16" class="color2">cd</text><text x="32" textLength="48" class="foreground"> /t/f/</text><text x="80" textLength="8" class="background"> </text><text x="88" textLength="552" class="foreground">                                                                     </text></g><g id="g47"><text x="0" textLength="8" fill="#5fd700">&gt;</text><text x="8" textLength="8" class="foreground"> </text><text x="16" textLength="16" class="color2">cd</text><text x="32" textLength="56" class="foreground"> /t/f/b</text><text x="88" textLength="8" class="background"> </text><text x="96" textLength="544" class="foreground">                                                                    </text></g><g id="g48"><text x="0" textLength="8" fill="#5fd700">&gt;</text><text x="8" textLength="8" class="foreground"> </text><text x="16" textLength="16" class="color2">cd</text><text x="32" textLength="64" class="foreground"> /t/f/b/</text><text x="96" textLength="8" class="background"> </text><text x="104" textLength="536" class="foreground">                                                                   </text></g><g id="g49"><text x="0" textLength="8" fill="#5fd700">&gt;</text><text x="8" textLength="8" class="foreground"> </text><text x="16" textLength="16" class="color2">cd</text><text x="32" textLength="72" class="foreground"> /t/f/b/b</text><text x="104" textLength="8" class="background"> </text><text x="112" textLength="528" class="foreground">                                                                  </text></g><g id="g50"><text x="0" textLength="8" fill="#5fd700">&gt;</text><text x="8" textLength="8" class="foreground"> </text><text x="16" textLength="16" class="color2">cd</text><text x="32" textLength="72" class="foreground"> /t/f/b/b</text><text x="104" textLength="8" class="color1">&#8230;</text><text x="112" textLength="8" class="background"> </text><text x="120" textLength="520" class="foreground">                                                                 </text></g><g id="g51"><text x="0" textLength="8" fill="#5fd700">&gt;</text><text x="8" textLength="8" class="foreground"> </text><text x="16" textLength="16" class="color2">cd</text><text x="32" textLength="8" class="foreground"> </text><text x="40" textLength="128" text-decoration="underline" class="color5">/tmp/foo/bar/baz</text><text x="168" textLength="8" font-weight="bold" text-decoration="underline" class="color13">/</text><text x="176" textLength="8" class="background"> </text><text x="184" textLength="456" class="foreground">                                                         </text></g><g id="g52"><text x="0" textLength="8" fill="#5fd700">&gt;</text><text x="8" textLength="8" class="foreground"> </text><text x="16" textLength="16" class="color2">cd</text><text x="32" textLength="8" class="foreground"> </text><text x="40" textLength="128" text-decoration="underline" class="color5">/tmp/foo/bar/baz</text><text x="168" textLength="8" class="background"> </text><text x="176" textLength="464" class="foreground">                                                          </text></g><g id="g53"><text x="0" textLength="8" fill="#5fd700">&gt;</text><text x="8" textLength="8" class="foreground"> </text><text x="16" textLength="16" class="color2">cd</text><text x="32" textLength="8" class="foreground"> </text><text x="40" textLength="128" text-decoration="underline" class="color5">/tmp/foo/bar/baz</text><text x="168" textLength="472" class="foreground">                                                           </text></g><g id="g54"><text x="0" textLength="16" fill="#0087af"> /</text><text x="16" textLength="24" font-weight="bold" fill="#00afff">tmp</text><text x="40" textLength="72" fill="#0087af">/foo/bar/</text><text x="112" textLength="24" font-weight="bold" fill="#00afff">baz</text><text x="136" textLength="8" fill="#0087af"> </text><text x="144" textLength="488" fill="#585858">-------------------------------------------------------------</text><text x="632" textLength="8" class="foreground"> </text></g><g id="g55"><text x="0" textLength="8" fill="#5fd700">&gt;</text><text x="8" textLength="8" class="foreground"> </text><text x="16" textLength="8" font-weight="bold" class="color9">p</text><text x="24" textLength="8" class="background"> </text><text x="32" textLength="608" class="foreground">                                                                            </text></g><g id="g56"><text x="0" textLength="8" fill="#5fd700">&gt;</text><text x="8" textLength="8" class="foreground"> </text><text x="16" textLength="16" font-weight="bold" class="color9">pw</text><text x="32" textLength="8" class="background"> </text><text x="40" textLength="600" class="foreground">                                                                           </text></g><g id="g57"><text x="0" textLength="8" fill="#5fd700">&gt;</text><text x="8" textLength="8" class="foreground"> </text><text x="16" textLength="24" class="color2">pwd</text><text x="40" textLength="8" class="background"> </text><text x="48" textLength="592" class="foreground">                                                                          </text></g><g id="g58"><text x="0" textLength="8" fill="#5fd700">&gt;</text><text x="8" textLength="8" class="foreground"> </text><text x="16" textLength="24" class="color2">pwd</text><text x="40" textLength="600" class="foreground">                                                                           </text></g><g id="g59"><text x="0" textLength="128" class="foreground">/tmp/foo/bar/baz</text></g><g id="g60"><text x="0" textLength="8" fill="#5fd700">&gt;</text><text x="8" textLength="632" class="foreground">                                                                               </text></g></defs><g id="screen_view"><g><rect x="0" y="0" width="24" height="17" fill="#303030"/><use xlink:href="#g1" y="0"/><rect x="16" y="17" width="8" height="17" class="foreground"/><use xlink:href="#g2" y="17"/></g><g><rect x="0" y="442" width="24" height="17" fill="#303030"/><use xlink:href="#g1" y="442"/><rect x="24" y="459" width="8" height="17" class="foreground"/><use xlink:href="#g3" y="459"/></g><g><rect x="0" y="884" width="24" height="17" fill="#303030"/><use xlink:href="#g1" y="884"/><rect x="32" y="901" width="8" height="17" class="foreground"/><use xlink:href="#g4" y="901"/></g><g><rect x="0" y="1326" width="24" height="17" fill="#303030"/><use xlink:href="#g1" y="1326"/><rect x="40" y="1343" width="8" height="17" class="foreground"/><use xlink:href="#g5" y="1343"/></g><g><rect x="0" y="1768" width="24" height="17" fill="#303030"/><use xlink:href="#g1" y="1768"/><rect x="48" y="1785" width="8" height="17" class="foreground"/><use xlink:href="#g6" y="1785"/></g><g><rect x="0" y="2210" width="24" height="17" fill="#303030"/><use xlink:href="#g1" y="2210"/><rect x="56" y="2227" width="8" height="17" class="foreground"/><use xlink:href="#g7" y="2227"/></g><g><rect x="0" y="2652" width="24" height="17" fill="#303030"/><use xlink:href="#g1" y="2652"/><rect x="64" y="2669" width="8" height="17" class="foreground"/><use xlink:href="#g8" y="2669"/></g><g><rect x="0" y="3094" width="24" height="17" fill="#303030"/><use xlink:href="#g1" y="3094"/><rect x="72" y="3111" width="8" height="17" class="foreground"/><use xlink:href="#g9" y="3111"/></g><g><rect x="0" y="3536" width="24" height="17" fill="#303030"/><use xlink:href="#g1" y="3536"/><rect x="80" y="3553" width="8" height="17" class="foreground"/><use xlink:href="#g10" y="3553"/></g><g><rect x="0" y="3978" width="24" height="17" fill="#303030"/><use xlink:href="#g1" y="3978"/><rect x="88" y="3995" width="8" height="17" class="foreground"/><use xlink:href="#g11" y="3995"/></g><g><rect x="0" y="4420" width="24" height="17" fill="#303030"/><use xlink:href="#g1" y="4420"/><rect x="96" y="4437" width="8" height="17" class="foreground"/><use xlink:href="#g12" y="4437"/></g><g><rect x="0" y="4862" width="8" height="17" class="foreground"/><use xlink:href="#g13" y="4862"/><use xlink:href="#g14" y="4879"/></g><g><rect x="0" y="5304" width="8" height="17" class="foreground"/><use xlink:href="#g13" y="5304"/><use xlink:href="#g14" y="5321"/></g><g><rect x="0" y="5746" width="24" height="17" fill="#303030"/><use xlink:href="#g1" y="5746"/><rect x="16" y="5763" width="8" height="17" class="foreground"/><use xlink:href="#g15" y="5763"/></g><g><rect x="0" y="6188" width="24" height="17" fill="#303030"/><use xlink:href="#g1" y="6188"/><rect x="16" y="6205" width="8" height="17" class="foreground"/><use xlink:href="#g15" y="6205"/></g><g><rect x="0" y="6630" width="24" height="17" fill="#303030"/><use xlink:href="#g1" y="6630"/><rect x="32" y="6647" width="8" height="17" class="foreground"/><use xlink:href="#g16" y="6647"/></g><g><rect x="0" y="7072" width="24" height="17" fill="#303030"/><use xlink:href="#g1" y="7072"/><rect x="48" y="7089" width="8" height="17" class="foreground"/><use xlink:href="#g17" y="7089"/></g><g><rect x="0" y="7514" width="24" height="17" fill="#303030"/><use xlink:href="#g1" y="7514"/><rect x="64" y="7531" width="8" height="17" class="foreground"/><use xlink:href="#g18" y="7531"/></g><g><rect x="0" y="7956" width="24" height="17" fill="#303030"/><use xlink:href="#g1" y="7956"/><rect x="80" y="7973" width="8" height="17" class="foreground"/><use xlink:href="#g19" y="7973"/></g><g><rect x="0" y="8398" width="24" height="17" fill="#303030"/><use xlink:href="#g1" y="8398"/><rect x="88" y="8415" width="8" height="17" class="foreground"/><use xlink:href="#g20" y="8415"/></g><g><rect x="0" y="8840" width="24" height="17" fill="#303030"/><use xlink:href="#g1" y="8840"/><rect x="96" y="8857" width="8" height="17" class="foreground"/><use xlink:href="#g21" y="8857"/></g><g><rect x="0" y="9282" width="24" height="17" fill="#303030"/><use xlink:href="#g1" y="9282"/><rect x="104" y="9299" width="8" height="17" class="foreground"/><use xlink:href="#g22" y="9299"/></g><g><rect x="0" y="9724" width="24" height="17" fill="#303030"/><use xlink:href="#g1" y="9724"/><rect x="112" y="9741" width="8" height="17" class="foreground"/><use xlink:href="#g23" y="9741"/></g><g><rect x="0" y="10166" width="24" height="17" fill="#303030"/><use xlink:href="#g1" y="10166"/><rect x="120" y="10183" width="8" height="17" class="foreground"/><use xlink:href="#g24" y="10183"/></g><g><rect x="0" y="10608" width="24" height="17" fill="#303030"/><use xlink:href="#g1" y="10608"/><rect x="128" y="10625" width="8" height="17" class="foreground"/><use xlink:href="#g25" y="10625"/></g><g><rect x="0" y="11050" width="24" height="17" fill="#303030"/><use xlink:href="#g1" y="11050"/><rect x="136" y="11067" width="8" height="17" class="foreground"/><use xlink:href="#g26" y="11067"/></g><g><rect x="0" y="11492" width="24" height="17" fill="#303030"/><use xlink:href="#g1" y="11492"/><rect x="144" y="11509" width="8" height="17" class="foreground"/><use xlink:href="#g27" y="11509"/></g><g><rect x="0" y="11934" width="24" height="17" fill="#303030"/><use xlink:href="#g1" y="11934"/><rect x="152" y="11951" width="8" height="17" class="foreground"/><use xlink:href="#g28" y="11951"/></g><g><rect x="0" y="12376" width="24" height="17" fill="#303030"/><use xlink:href="#g1" y="12376"/><rect x="160" y="12393" width="8" height="17" class="foreground"/><use xlink:href="#g29" y="12393"/></g><g><rect x="0" y="12818" width="24" height="17" fill="#303030"/><use xlink:href="#g1" y="12818"/><rect x="168" y="12835" width="8" height="17" class="foreground"/><use xlink:href="#g30" y="12835"/></g><g><rect x="0" y="13260" width="24" height="17" fill="#303030"/><use xlink:href="#g1" y="13260"/><rect x="176" y="13277" width="8" height="17" class="foreground"/><use xlink:href="#g31" y="13277"/></g><g><rect x="0" y="13702" width="24" height="17" fill="#303030"/><use xlink:href="#g1" y="13702"/><rect x="184" y="13719" width="8" height="17" class="foreground"/><use xlink:href="#g32" y="13719"/></g><g><rect x="0" y="14144" width="24" height="17" fill="#303030"/><use xlink:href="#g1" y="14144"/><rect x="192" y="14161" width="8" height="17" class="foreground"/><use xlink:href="#g33" y="14161"/></g><g><rect x="0" y="14586" width="24" height="17" fill="#303030"/><use xlink:href="#g1" y="14586"/><rect x="200" y="14603" width="8" height="17" class="foreground"/><use xlink:href="#g34" y="14603"/></g><g><rect x="0" y="15028" width="24" height="17" fill="#303030"/><use xlink:href="#g1" y="15028"/><rect x="208" y="15045" width="8" height="17" class="foreground"/><use xlink:href="#g35" y="15045"/></g><g><rect x="0" y="15470" width="24" height="17" fill="#303030"/><use xlink:href="#g1" y="15470"/><rect x="216" y="15487" width="8" height="17" class="foreground"/><use xlink:href="#g36" y="15487"/></g><g><rect x="0" y="15912" width="24" height="17" fill="#303030"/><use xlink:href="#g1" y="15912"/><rect x="216" y="15929" width="8" height="17" class="foreground"/><use xlink:href="#g36" y="15929"/></g><g><rect x="0" y="16354" width="24" height="17" fill="#303030"/><use xlink:href="#g1" y="16354"/><use xlink:href="#g37" y="16371"/><rect x="0" y="16388" width="8" height="17" class="foreground"/><use xlink:href="#g38" y="16388"/></g><g><rect x="0" y="16796" width="24" height="17" fill="#303030"/><use xlink:href="#g1" y="16796"/><use xlink:href="#g37" y="16813"/><rect x="0" y="16830" width="8" height="17" class="foreground"/><use xlink:href="#g38" y="16830"/></g><g><rect x="0" y="17238" width="24" height="17" fill="#303030"/><use xlink:href="#g1" y="17238"/><use xlink:href="#g37" y="17255"/><rect x="0" y="17272" width="8" height="17" class="foreground"/><use xlink:href="#g13" y="17272"/></g><g><rect x="0" y="17680" width="24" height="17" fill="#303030"/><use xlink:href="#g1" y="17680"/><use xlink:href="#g37" y="17697"/><rect x="0" y="17714" width="8" height="17" class="foreground"/><use xlink:href="#g13" y="17714"/></g><g><rect x="0" y="18122" width="24" height="17" fill="#303030"/><use xlink:href="#g1" y="18122"/><use xlink:href="#g37" y="18139"/><rect x="0" y="18156" width="24" height="17" fill="#303030"/><use xlink:href="#g1" y="18156"/><rect x="16" y="18173" width="8" height="17" class="foreground"/><use xlink:href="#g15" y="18173"/></g><g><rect x="0" y="18564" width="24" height="17" fill="#303030"/><use xlink:href="#g1" y="18564"/><use xlink:href="#g37" y="18581"/><rect x="0" y="18598" width="24" height="17" fill="#303030"/><use xlink:href="#g1" y="18598"/><rect x="16" y="18615" width="8" height="17" class="foreground"/><use xlink:href="#g15" y="18615"/></g><g><rect x="0" y="19006" width="24" height="17" fill="#303030"/><use xlink:href="#g1" y="19006"/><use xlink:href="#g37" y="19023"/><rect x="0" y="19040" width="24" height="17" fill="#303030"/><use xlink:href="#g1" y="19040"/><rect x="16" y="19057" width="8" height="17" class="foreground"/><use xlink:href="#g15" y="19057"/></g><g><rect x="0" y="19448" width="24" height="17" fill="#303030"/><use xlink:href="#g1" y="19448"/><use xlink:href="#g37" y="19465"/><rect x="0" y="19482" width="24" height="17" fill="#303030"/><use xlink:href="#g1" y="19482"/><rect x="24" y="19499" width="8" height="17" class="foreground"/><use xlink:href="#g39" y="19499"/></g><g><rect x="0" y="19890" width="24" height="17" fill="#303030"/><use xlink:href="#g1" y="19890"/><use xlink:href="#g37" y="19907"/><rect x="0" y="19924" width="24" height="17" fill="#303030"/><use xlink:href="#g1" y="19924"/><rect x="32" y="19941" width="8" height="17" class="foreground"/><use xlink:href="#g40" y="19941"/></g><g><rect x="0" y="20332" width="24" height="17" fill="#303030"/><use xlink:href="#g1" y="20332"/><use xlink:href="#g37" y="20349"/><rect x="0" y="20366" width="24" height="17" fill="#303030"/><use xlink:href="#g1" y="20366"/><rect x="40" y="20383" width="8" height="17" class="foreground"/><use xlink:href="#g41" y="20383"/></g><g><rect x="0" y="20774" width="24" height="17" fill="#303030"/><use xlink:href="#g1" y="20774"/><use xlink:href="#g37" y="20791"/><rect x="0" y="20808" width="24" height="17" fill="#303030"/><use xlink:href="#g1" y="20808"/><rect x="48" y="20825" width="8" height="17" class="foreground"/><use xlink:href="#g42" y="20825"/></g><g><rect x="0" y="21216" width="24" height="17" fill="#303030"/><use xlink:href="#g1" y="21216"/><use xlink:href="#g37" y="21233"/><rect x="0" y="21250" width="24" height="17" fill="#303030"/><use xlink:href="#g1" y="21250"/><rect x="56" y="21267" width="8" height="17" class="foreground"/><use xlink:href="#g43" y="21267"/></g><g><rect x="0" y="21658" width="24" height="17" fill="#303030"/><use xlink:href="#g1" y="21658"/><use xlink:href="#g37" y="21675"/><rect x="0" y="21692" width="24" height="17" fill="#303030"/><use xlink:href="#g1" y="21692"/><rect x="64" y="21709" width="8" height="17" class="foreground"/><use xlink:href="#g44" y="21709"/></g><g><rect x="0" y="22100" width="24" height="17" fill="#303030"/><use xlink:href="#g1" y="22100"/><use xlink:href="#g37" y="22117"/><rect x="0" y="22134" width="24" height="17" fill="#303030"/><use xlink:href="#g1" y="22134"/><rect x="72" y="22151" width="8" height="17" class="foreground"/><use xlink:href="#g45" y="22151"/></g><g><rect x="0" y="22542" width="24" height="17" fill="#303030"/><use xlink:href="#g1" y="22542"/><use xlink:href="#g37" y="22559"/><rect x="0" y="22576" width="24" height="17" fill="#303030"/><use xlink:href="#g1" y="22576"/><rect x="80" y="22593" width="8" height="17" class="foreground"/><use xlink:href="#g46" y="22593"/></g><g><rect x="0" y="22984" width="24" height="17" fill="#303030"/><use xlink:href="#g1" y="22984"/><use xlink:href="#g37" y="23001"/><rect x="0" y="23018" width="24" height="17" fill="#303030"/><use xlink:href="#g1" y="23018"/><rect x="88" y="23035" width="8" height="17" class="foreground"/><use xlink:href="#g47" y="23035"/></g><g><rect x="0" y="23426" width="24" height="17" fill="#303030"/><use xlink:href="#g1" y="23426"/><use xlink:href="#g37" y="23443"/><rect x="0" y="23460" width="24" height="17" fill="#303030"/><use xlink:href="#g1" y="23460"/><rect x="96" y="23477" width="8" height="17" class="foreground"/><use xlink:href="#g48" y="23477"/></g><g><rect x="0" y="23868" width="24" height="17" fill="#303030"/><use xlink:href="#g1" y="23868"/><use xlink:href="#g37" y="23885"/><rect x="0" y="23902" width="24" height="17" fill="#303030"/><use xlink:href="#g1" y="23902"/><rect x="104" y="23919" width="8" height="17" class="foreground"/><use xlink:href="#g49" y="23919"/></g><g><rect x="0" y="24310" width="24" height="17" fill="#303030"/><use xlink:href="#g1" y="24310"/><use xlink:href="#g37" y="24327"/><rect x="0" y="24344" width="24" height="17" fill="#303030"/><use xlink:href="#g1" y="24344"/><rect x="112" y="24361" width="8" height="17" class="foreground"/><use xlink:href="#g50" y="24361"/></g><g><rect x="0" y="24752" width="24" height="17" fill="#303030"/><use xlink:href="#g1" y="24752"/><use xlink:href="#g37" y="24769"/><rect x="0" y="24786" width="24" height="17" fill="#303030"/><use xlink:href="#g1" y="24786"/><rect x="176" y="24803" width="8" height="17" class="foreground"/><use xlink:href="#g51" y="24803"/></g><g><rect x="0" y="25194" width="24" height="17" fill="#303030"/><use xlink:href="#g1" y="25194"/><use xlink:href="#g37" y="25211"/><rect x="0" y="25228" width="24" height="17" fill="#303030"/><use xlink:href="#g1" y="25228"/><rect x="168" y="25245" width="8" height="17" class="foreground"/><use xlink:href="#g52" y="25245"/></g><g><rect x="0" y="25636" width="24" height="17" fill="#303030"/><use xlink:href="#g1" y="25636"/><use xlink:href="#g37" y="25653"/><rect x="0" y="25670" width="24" height="17" fill="#303030"/><use xlink:href="#g1" y="25670"/><use xlink:href="#g53" y="25687"/><rect x="0" y="25704" width="8" height="17" class="foreground"/><use xlink:href="#g38" y="25704"/></g><g><rect x="0" y="26078" width="24" height="17" fill="#303030"/><use xlink:href="#g1" y="26078"/><use xlink:href="#g37" y="26095"/><rect x="0" y="26112" width="24" height="17" fill="#303030"/><use xlink:href="#g1" y="26112"/><use xlink:href="#g53" y="26129"/><rect x="0" y="26146" width="8" height="17" class="foreground"/><use xlink:href="#g38" y="26146"/></g><g><rect x="0" y="26520" width="24" height="17" fill="#303030"/><use xlink:href="#g1" y="26520"/><use xlink:href="#g37" y="26537"/><rect x="0" y="26554" width="24" height="17" fill="#303030"/><use xlink:href="#g1" y="26554"/><use xlink:href="#g53" y="26571"/><rect x="0" y="26588" width="8" height="17" class="foreground"/><use xlink:href="#g13" y="26588"/></g><g><rect x="0" y="26962" width="24" height="17" fill="#303030"/><use xlink:href="#g1" y="26962"/><use xlink:href="#g37" y="26979"/><rect x="0" y="26996" width="24" height="17" fill="#303030"/><use xlink:href="#g1" y="26996"/><use xlink:href="#g53" y="27013"/><rect x="0" y="27030" width="8" height="17" class="foreground"/><use xlink:href="#g13" y="27030"/></g><g><rect x="0" y="27404" width="24" height="17" fill="#303030"/><use xlink:href="#g1" y="27404"/><use xlink:href="#g37" y="27421"/><rect x="0" y="27438" width="24" height="17" fill="#303030"/><use xlink:href="#g1" y="27438"/><use xlink:href="#g53" y="27455"/><rect x="0" y="27472" width="144" height="17" fill="#303030"/><use xlink:href="#g54" y="27472"/><rect x="16" y="27489" width="8" height="17" class="foreground"/><use xlink:href="#g15" y="27489"/></g><g><rect x="0" y="27846" width="24" height="17" fill="#303030"/><use xlink:href="#g1" y="27846"/><use xlink:href="#g37" y="27863"/><rect x="0" y="27880" width="24" height="17" fill="#303030"/><use xlink:href="#g1" y="27880"/><use xlink:href="#g53" y="27897"/><rect x="0" y="27914" width="144" height="17" fill="#303030"/><use xlink:href="#g54" y="27914"/><rect x="16" y="27931" width="8" height="17" class="foreground"/><use xlink:href="#g15" y="27931"/></g><g><rect x="0" y="28288" width="24" height="17" fill="#303030"/><use xlink:href="#g1" y="28288"/><use xlink:href="#g37" y="28305"/><rect x="0" y="28322" width="24" height="17" fill="#303030"/><use xlink:href="#g1" y="28322"/><use xlink:href="#g53" y="28339"/><rect x="0" y="28356" width="144" height="17" fill="#303030"/><use xlink:href="#g54" y="28356"/><rect x="24" y="28373" width="8" height="17" class="foreground"/><use xlink:href="#g55" y="28373"/></g><g><rect x="0" y="28730" width="24" height="17" fill="#303030"/><use xlink:href="#g1" y="28730"/><use xlink:href="#g37" y="28747"/><rect x="0" y="28764" width="24" height="17" fill="#303030"/><use xlink:href="#g1" y="28764"/><use xlink:href="#g53" y="28781"/><rect x="0" y="28798" width="144" height="17" fill="#303030"/><use xlink:href="#g54" y="28798"/><rect x="32" y="28815" width="8" height="17" class="foreground"/><use xlink:href="#g56" y="28815"/></g><g><rect x="0" y="29172" width="24" height="17" fill="#303030"/><use xlink:href="#g1" y="29172"/><use xlink:href="#g37" y="29189"/><rect x="0" y="29206" width="24" height="17" fill="#303030"/><use xlink:href="#g1" y="29206"/><use xlink:href="#g53" y="29223"/><rect x="0" y="29240" width="144" height="17" fill="#303030"/><use xlink:href="#g54" y="29240"/><rect x="40" y="29257" width="8" height="17" class="foreground"/><use xlink:href="#g57" y="29257"/></g><g><rect x="0" y="29614" width="24" height="17" fill="#303030"/><use xlink:href="#g1" y="29614"/><use xlink:href="#g37" y="29631"/><rect x="0" y="29648" width="24" height="17" fill="#303030"/><use xlink:href="#g1" y="29648"/><use xlink:href="#g53" y="29665"/><rect x="0" y="29682" width="144" height="17" fill="#303030"/><use xlink:href="#g54" y="29682"/><rect x="40" y="29699" width="8" height="17" class="foreground"/><use xlink:href="#g57" y="29699"/></g><g><rect x="0" y="30056" width="24" height="17" fill="#303030"/><use xlink:href="#g1" y="30056"/><use xlink:href="#g37" y="30073"/><rect x="0" y="30090" width="24" height="17" fill="#303030"/><use xlink:href="#g1" y="30090"/><use xlink:href="#g53" y="30107"/><rect x="0" y="30124" width="144" height="17" fill="#303030"/><use xlink:href="#g54" y="30124"/><use xlink:href="#g58" y="30141"/><rect x="0" y="30158" width="8" height="17" class="foreground"/><use xlink:href="#g38" y="30158"/></g><g><rect x="0" y="30498" width="24" height="17" fill="#303030"/><use xlink:href="#g1" y="30498"/><use xlink:href="#g37" y="30515"/><rect x="0" y="30532" width="24" height="17" fill="#303030"/><use xlink:href="#g1" y="30532"/><use xlink:href="#g53" y="30549"/><rect x="0" y="30566" width="144" height="17" fill="#303030"/><use xlink:href="#g54" y="30566"/><use xlink:href="#g58" y="30583"/><rect x="0" y="30600" width="8" height="17" class="foreground"/><use xlink:href="#g38" y="30600"/></g><g><rect x="0" y="30940" width="24" height="17" fill="#303030"/><use xlink:href="#g1" y="30940"/><use xlink:href="#g37" y="30957"/><rect x="0" y="30974" width="24" height="17" fill="#303030"/><use xlink:href="#g1" y="30974"/><use xlink:href="#g53" y="30991"/><rect x="0" y="31008" width="144" height="17" fill="#303030"/><use xlink:href="#g54" y="31008"/><use xlink:href="#g58" y="31025"/><use xlink:href="#g59" y="31042"/><rect x="0" y="31059" width="8" height="17" class="foreground"/><use xlink:href="#g13" y="31059"/></g><g><rect x="0" y="31382" width="24" height="17" fill="#303030"/><use xlink:href="#g1" y="31382"/><use xlink:href="#g37" y="31399"/><rect x="0" y="31416" width="24" height="17" fill="#303030"/><use xlink:href="#g1" y="31416"/><use xlink:href="#g53" y="31433"/><rect x="0" y="31450" width="144" height="17" fill="#303030"/><use xlink:href="#g54" y="31450"/><use xlink:href="#g58" y="31467"/><use xlink:href="#g59" y="31484"/><rect x="0" y="31501" width="144" height="17" fill="#303030"/><use xlink:href="#g54" y="31501"/><rect x="16" y="31518" width="8" height="17" class="foreground"/><use xlink:href="#g15" y="31518"/></g><g><rect x="0" y="31824" width="24" height="17" fill="#303030"/><use xlink:href="#g1" y="31824"/><use xlink:href="#g37" y="31841"/><rect x="0" y="31858" width="24" height="17" fill="#303030"/><use xlink:href="#g1" y="31858"/><use xlink:href="#g53" y="31875"/><rect x="0" y="31892" width="144" height="17" fill="#303030"/><use xlink:href="#g54" y="31892"/><use xlink:href="#g58" y="31909"/><use xlink:href="#g59" y="31926"/><rect x="0" y="31943" width="144" height="17" fill="#303030"/><use xlink:href="#g54" y="31943"/><rect x="16" y="31960" width="8" height="17" class="foreground"/><use xlink:href="#g15" y="31960"/></g><g><rect x="0" y="32266" width="24" height="17" fill="#303030"/><use xlink:href="#g1" y="32266"/><use xlink:href="#g37" y="32283"/><rect x="0" y="32300" width="24" height="17" fill="#303030"/><use xlink:href="#g1" y="32300"/><use xlink:href="#g53" y="32317"/><rect x="0" y="32334" width="144" height="17" fill="#303030"/><use xlink:href="#g54" y="32334"/><use xlink:href="#g58" y="32351"/><use xlink:href="#g59" y="32368"/><rect x="0" y="32385" width="144" height="17" fill="#303030"/><use xlink:href="#g54" y="32385"/><use xlink:href="#g60" y="32402"/><rect x="0" y="32419" width="8" height="17" class="foreground"/><use xlink:href="#g38" y="32419"/></g></g></svg>
</svg>