<svg xmlns="http://www.w3.org/2000/svg" xmlns:xlink="http://www.w3.org/1999/xlink" id="terminal" baseProfile="full" viewBox="0 0 640 427" width="640" version="1.1">
    <defs>
        <termtosvg:template_settings xmlns:termtosvg="https://github.com/nbedos/termtosvg">
            <termtosvg:screen_geometry columns="80" rows="25"/>
            <termtosvg:animation type="css"/>
        </termtosvg:template_settings>
        <style type="text/css" id="generated-style"><![CDATA[#screen {
                font-family: 'DejaVu Sans Mono', monospace;
                font-style: normal;
                font-size: 14px;
            }

        text {
            dominant-baseline: text-before-edge;
            white-space: pre;
        }
    
            :root {
                --animation-duration: 11126ms;
            }

            @keyframes roll {
                0.000%{transform:translateY(0px)}
14.075%{transform:translateY(-442px)}
15.010%{transform:translateY(-884px)}
15.972%{transform:translateY(-1326px)}
16.484%{transform:translateY(-1768px)}
16.511%{transform:translateY(-2210px)}
16.538%{transform:translateY(-2652px)}
16.547%{transform:translateY(-3094px)}
16.565%{transform:translateY(-3536px)}
16.574%{transform:translateY(-3978px)}
16.610%{transform:translateY(-4420px)}
18.704%{transform:translateY(-4862px)}
20.520%{transform:translateY(-5304px)}
22.407%{transform:translateY(-5746px)}
23.306%{transform:translateY(-6188px)}
29.094%{transform:translateY(-6630px)}
29.112%{transform:translateY(-7072px)}
29.184%{transform:translateY(-7514px)}
29.346%{transform:translateY(-7956px)}
29.373%{transform:translateY(-8398px)}
29.382%{transform:translateY(-8840px)}
29.400%{transform:translateY(-9282px)}
37.264%{transform:translateY(-9724px)}
38.262%{transform:translateY(-10166px)}
39.259%{transform:translateY(-10608px)}
41.614%{transform:translateY(-11050px)}
43.205%{transform:translateY(-11492px)}
45.857%{transform:translateY(-11934px)}
49.263%{transform:translateY(-12376px)}
51.420%{transform:translateY(-12818px)}
53.433%{transform:translateY(-13260px)}
54.188%{transform:translateY(-13702px)}
57.873%{transform:translateY(-14144px)}
57.891%{transform:translateY(-14586px)}
57.900%{transform:translateY(-15028px)}
57.972%{transform:translateY(-15470px)}
57.981%{transform:translateY(-15912px)}
58.143%{transform:translateY(-16354px)}
58.161%{transform:translateY(-16796px)}
58.188%{transform:translateY(-17238px)}
91.012%{transform:translateY(-17680px)}
100.000%{transform:translateY(-17680px)}
            }

            #screen_view {
                animation-duration: 11126ms;
                animation-iteration-count:infinite;
                animation-name:roll;
                animation-timing-function: steps(1,end);
                animation-fill-mode: forwards;
            }
        ]]></style>
        <style type="text/css" id="user-style">
            /* The colors defined below are the default 16 colors used for rendering text of the terminal. Adjust
               them as needed.
               PowerShell colors based on https://en.wikipedia.org/wiki/ANSI_escape_code#Colors */
            .foreground {fill: #cccccc;}
            .background {fill: #0c0c0c;}
            .color0 {fill: #0c0c0c;}
            .color1 {fill: #c50f1f;}
            .color2 {fill: #13a10e;}
            .color3 {fill: #c19c00;}
            .color4 {fill: #0037da;}
            .color5 {fill: #881798;}
            .color6 {fill: #3a96dd;}
            .color7 {fill: #cccccc;}
            .color8 {fill: #767676;}
            .color9 {fill: #e74856;}
            .color10 {fill: #16c60c;}
            .color11 {fill: #f9f1a5;}
            .color12 {fill: #3b78ff;}
            .color13 {fill: #b4009e;}
            .color14 {fill: #61d6d6;}
            .color15 {fill: #f2f2f2;}
        </style>
    </defs>
    <svg id="screen" width="640" height="425" viewBox="0 0 640 425" preserveAspectRatio="xMidYMin slice">
    <rect class="background" height="100%" width="100%" x="0" y="0"/><defs><g id="g1"><text x="0" textLength="16" fill="#0087af"> /</text><text x="16" textLength="24" font-weight="bold" fill="#00afff">tmp</text><text x="40" textLength="8" fill="#0087af">/</text><text x="48" textLength="24" font-weight="bold" fill="#00afff">foo</text><text x="72" textLength="8" fill="#0087af"> </text><text x="80" textLength="8" class="foreground"> </text><text x="88" textLength="8" class="background"> </text><text x="96" textLength="544" class="foreground">                                                                    </text></g><g id="g2"><text x="0" textLength="16" fill="#0087af"> /</text><text x="16" textLength="24" font-weight="bold" fill="#00afff">tmp</text><text x="40" textLength="8" fill="#0087af">/</text><text x="48" textLength="24" font-weight="bold" fill="#00afff">foo</text><text x="72" textLength="8" fill="#0087af"> </text><text x="80" textLength="16" class="foreground"> l</text><text x="96" textLength="8" class="background"> </text><text x="104" textLength="536" class="foreground">                                                                   </text></g><g id="g3"><text x="0" textLength="16" fill="#0087af"> /</text><text x="16" textLength="24" font-weight="bold" fill="#00afff">tmp</text><text x="40" textLength="8" fill="#0087af">/</text><text x="48" textLength="24" font-weight="bold" fill="#00afff">foo</text><text x="72" textLength="8" fill="#0087af"> </text><text x="80" textLength="24" class="foreground"> ls</text><text x="104" textLength="8" class="background"> </text><text x="112" textLength="528" class="foreground">                                                                  </text></g><g id="g4"><text x="0" textLength="16" fill="#0087af"> /</text><text x="16" textLength="24" font-weight="bold" fill="#00afff">tmp</text><text x="40" textLength="8" fill="#0087af">/</text><text x="48" textLength="24" font-weight="bold" fill="#00afff">foo</text><text x="72" textLength="8" fill="#0087af"> </text><text x="80" textLength="32" class="foreground"> ls </text><text x="112" textLength="8" class="background"> </text><text x="120" textLength="520" class="foreground">                                                                 </text></g><g id="g5"><text x="0" textLength="8" class="background"> </text><text x="8" textLength="632" class="foreground">                                                                               </text></g><g id="g6"><text x="0" textLength="16" fill="#0087af"> /</text><text x="16" textLength="24" font-weight="bold" fill="#00afff">tmp</text><text x="40" textLength="8" fill="#0087af">/</text><text x="48" textLength="24" font-weight="bold" fill="#00afff">foo</text><text x="72" textLength="8" fill="#0087af"> </text><text x="80" textLength="8" class="foreground"> </text><text x="88" textLength="16" class="color2">ls</text><text x="104" textLength="8" class="foreground"> </text><text x="112" textLength="8" class="background"> </text><text x="120" textLength="520" class="foreground">                                                                 </text></g><g id="g7"><text x="0" textLength="16" fill="#0087af"> /</text><text x="16" textLength="24" font-weight="bold" fill="#00afff">tmp</text><text x="40" textLength="8" fill="#0087af">/</text><text x="48" textLength="24" font-weight="bold" fill="#00afff">foo</text><text x="72" textLength="8" fill="#0087af"> </text><text x="80" textLength="8" class="foreground"> </text><text x="88" textLength="16" class="color2">ls</text><text x="104" textLength="8" class="foreground"> </text><text x="112" textLength="8" font-weight="bold" class="color12">*</text><text x="120" textLength="8" class="background"> </text><text x="128" textLength="512" class="foreground">                                                                </text></g><g id="g8"><text x="0" textLength="16" fill="#0087af"> /</text><text x="16" textLength="24" font-weight="bold" fill="#00afff">tmp</text><text x="40" textLength="8" fill="#0087af">/</text><text x="48" textLength="24" font-weight="bold" fill="#00afff">foo</text><text x="72" textLength="8" fill="#0087af"> </text><text x="80" textLength="8" class="foreground"> </text><text x="88" textLength="16" class="color2">ls</text><text x="104" textLength="8" class="foreground"> </text><text x="112" textLength="16" font-weight="bold" class="color12">*.</text><text x="128" textLength="8" class="background"> </text><text x="136" textLength="504" class="foreground">                                                               </text></g><g id="g9"><text x="0" textLength="16" fill="#0087af"> /</text><text x="16" textLength="24" font-weight="bold" fill="#00afff">tmp</text><text x="40" textLength="8" fill="#0087af">/</text><text x="48" textLength="24" font-weight="bold" fill="#00afff">foo</text><text x="72" textLength="8" fill="#0087af"> </text><text x="80" textLength="8" class="foreground"> </text><text x="88" textLength="16" class="color2">ls</text><text x="104" textLength="8" class="foreground"> </text><text x="112" textLength="24" font-weight="bold" class="color12">*.p</text><text x="136" textLength="8" class="background"> </text><text x="144" textLength="496" class="foreground">                                                              </text></g><g id="g10"><text x="0" textLength="16" fill="#0087af"> /</text><text x="16" textLength="24" font-weight="bold" fill="#00afff">tmp</text><text x="40" textLength="8" fill="#0087af">/</text><text x="48" textLength="24" font-weight="bold" fill="#00afff">foo</text><text x="72" textLength="8" fill="#0087af"> </text><text x="80" textLength="8" class="foreground"> </text><text x="88" textLength="16" class="color2">ls</text><text x="104" textLength="8" class="foreground"> </text><text x="112" textLength="32" font-weight="bold" class="color12">*.py</text><text x="144" textLength="8" class="background"> </text><text x="152" textLength="488" class="foreground">                                                             </text></g><g id="g11"><text x="0" textLength="16" fill="#0087af"> /</text><text x="16" textLength="24" font-weight="bold" fill="#00afff">tmp</text><text x="40" textLength="8" fill="#0087af">/</text><text x="48" textLength="24" font-weight="bold" fill="#00afff">foo</text><text x="72" textLength="8" fill="#0087af"> </text><text x="80" textLength="8" class="foreground"> </text><text x="88" textLength="16" class="color2">ls</text><text x="104" textLength="8" class="foreground"> </text><text x="112" textLength="32" font-weight="bold" class="color12">*.py</text><text x="144" textLength="496" class="foreground">                                                              </text></g><g id="g12"><text x="0" textLength="8" class="background"> </text></g><g id="g13"><text x="0" textLength="80" class="foreground">example.py</text></g><g id="g14"><text x="0" textLength="640" class="foreground">                                                                                </text></g><g id="g15"><text x="0" textLength="16" fill="#0087af"> /</text><text x="16" textLength="24" font-weight="bold" fill="#00afff">tmp</text><text x="40" textLength="8" fill="#0087af">/</text><text x="48" textLength="24" font-weight="bold" fill="#00afff">foo</text><text x="72" textLength="8" fill="#0087af"> </text><text x="80" textLength="8" class="foreground"> </text><text x="88" textLength="8" class="color2">l</text><text x="96" textLength="8" class="background"> </text><text x="104" textLength="536" class="foreground">                                                                   </text></g><g id="g16"><text x="0" textLength="16" fill="#0087af"> /</text><text x="16" textLength="24" font-weight="bold" fill="#00afff">tmp</text><text x="40" textLength="8" fill="#0087af">/</text><text x="48" textLength="24" font-weight="bold" fill="#00afff">foo</text><text x="72" textLength="8" fill="#0087af"> </text><text x="80" textLength="8" class="foreground"> </text><text x="88" textLength="16" class="color2">ls</text><text x="104" textLength="8" class="background"> </text><text x="112" textLength="528" class="foreground">                                                                  </text></g><g id="g17"><text x="0" textLength="16" fill="#0087af"> /</text><text x="16" textLength="24" font-weight="bold" fill="#00afff">tmp</text><text x="40" textLength="8" fill="#0087af">/</text><text x="48" textLength="24" font-weight="bold" fill="#00afff">foo</text><text x="72" textLength="8" fill="#0087af"> </text><text x="80" textLength="8" class="foreground"> </text><text x="88" textLength="16" class="color2">ls</text><text x="104" textLength="8" class="foreground"> </text><text x="112" textLength="16" font-weight="bold" class="color12">**</text><text x="128" textLength="8" class="background"> </text><text x="136" textLength="504" class="foreground">                                                               </text></g><g id="g18"><text x="0" textLength="16" fill="#0087af"> /</text><text x="16" textLength="24" font-weight="bold" fill="#00afff">tmp</text><text x="40" textLength="8" fill="#0087af">/</text><text x="48" textLength="24" font-weight="bold" fill="#00afff">foo</text><text x="72" textLength="8" fill="#0087af"> </text><text x="80" textLength="8" class="foreground"> </text><text x="88" textLength="16" class="color2">ls</text><text x="104" textLength="8" class="foreground"> </text><text x="112" textLength="24" font-weight="bold" class="color12">**/</text><text x="136" textLength="8" class="background"> </text><text x="144" textLength="496" class="foreground">                                                              </text></g><g id="g19"><text x="0" textLength="16" fill="#0087af"> /</text><text x="16" textLength="24" font-weight="bold" fill="#00afff">tmp</text><text x="40" textLength="8" fill="#0087af">/</text><text x="48" textLength="24" font-weight="bold" fill="#00afff">foo</text><text x="72" textLength="8" fill="#0087af"> </text><text x="80" textLength="8" class="foreground"> </text><text x="88" textLength="16" class="color2">ls</text><text x="104" textLength="8" class="foreground"> </text><text x="112" textLength="32" font-weight="bold" class="color12">**/*</text><text x="144" textLength="8" class="background"> </text><text x="152" textLength="488" class="foreground">                                                             </text></g><g id="g20"><text x="0" textLength="16" fill="#0087af"> /</text><text x="16" textLength="24" font-weight="bold" fill="#00afff">tmp</text><text x="40" textLength="8" fill="#0087af">/</text><text x="48" textLength="24" font-weight="bold" fill="#00afff">foo</text><text x="72" textLength="8" fill="#0087af"> </text><text x="80" textLength="8" class="foreground"> </text><text x="88" textLength="16" class="color2">ls</text><text x="104" textLength="8" class="foreground"> </text><text x="112" textLength="40" font-weight="bold" class="color12">**/*.</text><text x="152" textLength="8" class="background"> </text><text x="160" textLength="480" class="foreground">                                                            </text></g><g id="g21"><text x="0" textLength="16" fill="#0087af"> /</text><text x="16" textLength="24" font-weight="bold" fill="#00afff">tmp</text><text x="40" textLength="8" fill="#0087af">/</text><text x="48" textLength="24" font-weight="bold" fill="#00afff">foo</text><text x="72" textLength="8" fill="#0087af"> </text><text x="80" textLength="8" class="foreground"> </text><text x="88" textLength="16" class="color2">ls</text><text x="104" textLength="8" class="foreground"> </text><text x="112" textLength="48" font-weight="bold" class="color12">**/*.p</text><text x="160" textLength="8" class="background"> </text><text x="168" textLength="472" class="foreground">                                                           </text></g><g id="g22"><text x="0" textLength="16" fill="#0087af"> /</text><text x="16" textLength="24" font-weight="bold" fill="#00afff">tmp</text><text x="40" textLength="8" fill="#0087af">/</text><text x="48" textLength="24" font-weight="bold" fill="#00afff">foo</text><text x="72" textLength="8" fill="#0087af"> </text><text x="80" textLength="8" class="foreground"> </text><text x="88" textLength="16" class="color2">ls</text><text x="104" textLength="8" class="foreground"> </text><text x="112" textLength="56" font-weight="bold" class="color12">**/*.py</text><text x="168" textLength="8" class="background"> </text><text x="176" textLength="464" class="foreground">                                                          </text></g><g id="g23"><text x="0" textLength="16" fill="#0087af"> /</text><text x="16" textLength="24" font-weight="bold" fill="#00afff">tmp</text><text x="40" textLength="8" fill="#0087af">/</text><text x="48" textLength="24" font-weight="bold" fill="#00afff">foo</text><text x="72" textLength="8" fill="#0087af"> </text><text x="80" textLength="8" class="foreground"> </text><text x="88" textLength="16" class="color2">ls</text><text x="104" textLength="8" class="foreground"> </text><text x="112" textLength="56" font-weight="bold" class="color12">**/*.py</text><text x="168" textLength="472" class="foreground">                                                           </text></g><g id="g24"><text x="0" textLength="408" class="foreground">bar/__init__.py           bar/baz/blerg/__init__.py</text></g><g id="g25"><text x="0" textLength="288" class="foreground">bar/baz/__init__.py       example.py</text></g><g id="g26"><text x="0" textLength="16" fill="#0087af"> /</text><text x="16" textLength="24" font-weight="bold" fill="#00afff">tmp</text><text x="40" textLength="8" fill="#0087af">/</text><text x="48" textLength="24" font-weight="bold" fill="#00afff">foo</text><text x="72" textLength="8" fill="#0087af"> </text><text x="80" textLength="560" class="foreground">                                                                      </text></g></defs><g id="screen_view"><g><rect x="0" y="0" width="80" height="17" fill="#303030"/><rect x="88" y="0" width="8" height="17" class="foreground"/><use xlink:href="#g1" y="0"/></g><g><rect x="0" y="442" width="80" height="17" fill="#303030"/><rect x="96" y="442" width="8" height="17" class="foreground"/><use xlink:href="#g2" y="442"/></g><g><rect x="0" y="884" width="80" height="17" fill="#303030"/><rect x="104" y="884" width="8" height="17" class="foreground"/><use xlink:href="#g3" y="884"/></g><g><rect x="0" y="1326" width="80" height="17" fill="#303030"/><rect x="112" y="1326" width="8" height="17" class="foreground"/><use xlink:href="#g4" y="1326"/></g><g><rect x="0" y="1768" width="8" height="17" class="foreground"/><use xlink:href="#g5" y="1768"/></g><g><rect x="0" y="2210" width="8" height="17" class="foreground"/><use xlink:href="#g5" y="2210"/></g><g><rect x="0" y="2652" width="80" height="17" fill="#303030"/><rect x="88" y="2652" width="8" height="17" class="foreground"/><use xlink:href="#g1" y="2652"/></g><g><rect x="0" y="3094" width="80" height="17" fill="#303030"/><rect x="88" y="3094" width="8" height="17" class="foreground"/><use xlink:href="#g1" y="3094"/></g><g><rect x="0" y="3536" width="80" height="17" fill="#303030"/><rect x="88" y="3536" width="8" height="17" class="foreground"/><use xlink:href="#g1" y="3536"/></g><g><rect x="0" y="3978" width="80" height="17" fill="#303030"/><rect x="104" y="3978" width="8" height="17" class="foreground"/><use xlink:href="#g3" y="3978"/></g><g><rect x="0" y="4420" width="80" height="17" fill="#303030"/><rect x="112" y="4420" width="8" height="17" class="foreground"/><use xlink:href="#g6" y="4420"/></g><g><rect x="0" y="4862" width="80" height="17" fill="#303030"/><rect x="120" y="4862" width="8" height="17" class="foreground"/><use xlink:href="#g7" y="4862"/></g><g><rect x="0" y="5304" width="80" height="17" fill="#303030"/><rect x="128" y="5304" width="8" height="17" class="foreground"/><use xlink:href="#g8" y="5304"/></g><g><rect x="0" y="5746" width="80" height="17" fill="#303030"/><rect x="136" y="5746" width="8" height="17" class="foreground"/><use xlink:href="#g9" y="5746"/></g><g><rect x="0" y="6188" width="80" height="17" fill="#303030"/><rect x="144" y="6188" width="8" height="17" class="foreground"/><use xlink:href="#g10" y="6188"/></g><g><rect x="0" y="6630" width="80" height="17" fill="#303030"/><rect x="144" y="6630" width="8" height="17" class="foreground"/><use xlink:href="#g10" y="6630"/></g><g><rect x="0" y="7072" width="80" height="17" fill="#303030"/><use xlink:href="#g11" y="7072"/><rect x="0" y="7089" width="8" height="17" class="foreground"/><use xlink:href="#g12" y="7089"/></g><g><rect x="0" y="7514" width="80" height="17" fill="#303030"/><use xlink:href="#g11" y="7514"/><use xlink:href="#g13" y="7531"/><rect x="0" y="7548" width="8" height="17" class="foreground"/><use xlink:href="#g5" y="7548"/></g><g><rect x="0" y="7956" width="80" height="17" fill="#303030"/><use xlink:href="#g11" y="7956"/><use xlink:href="#g13" y="7973"/><use xlink:href="#g14" y="7990"/><rect x="0" y="8007" width="8" height="17" class="foreground"/><use xlink:href="#g12" y="8007"/></g><g><rect x="0" y="8398" width="80" height="17" fill="#303030"/><use xlink:href="#g11" y="8398"/><use xlink:href="#g13" y="8415"/><use xlink:href="#g14" y="8432"/><rect x="0" y="8449" width="80" height="17" fill="#303030"/><rect x="88" y="8449" width="8" height="17" class="foreground"/><use xlink:href="#g1" y="8449"/></g><g><rect x="0" y="8840" width="80" height="17" fill="#303030"/><use xlink:href="#g11" y="8840"/><use xlink:href="#g13" y="8857"/><use xlink:href="#g14" y="8874"/><rect x="0" y="8891" width="80" height="17" fill="#303030"/><rect x="88" y="8891" width="8" height="17" class="foreground"/><use xlink:href="#g1" y="8891"/></g><g><rect x="0" y="9282" width="80" height="17" fill="#303030"/><use xlink:href="#g11" y="9282"/><use xlink:href="#g13" y="9299"/><use xlink:href="#g14" y="9316"/><rect x="0" y="9333" width="80" height="17" fill="#303030"/><rect x="88" y="9333" width="8" height="17" class="foreground"/><use xlink:href="#g1" y="9333"/></g><g><rect x="0" y="9724" width="80" height="17" fill="#303030"/><use xlink:href="#g11" y="9724"/><use xlink:href="#g13" y="9741"/><use xlink:href="#g14" y="9758"/><rect x="0" y="9775" width="80" height="17" fill="#303030"/><rect x="96" y="9775" width="8" height="17" class="foreground"/><use xlink:href="#g15" y="9775"/></g><g><rect x="0" y="10166" width="80" height="17" fill="#303030"/><use xlink:href="#g11" y="10166"/><use xlink:href="#g13" y="10183"/><use xlink:href="#g14" y="10200"/><rect x="0" y="10217" width="80" height="17" fill="#303030"/><rect x="104" y="10217" width="8" height="17" class="foreground"/><use xlink:href="#g16" y="10217"/></g><g><rect x="0" y="10608" width="80" height="17" fill="#303030"/><use xlink:href="#g11" y="10608"/><use xlink:href="#g13" y="10625"/><use xlink:href="#g14" y="10642"/><rect x="0" y="10659" width="80" height="17" fill="#303030"/><rect x="112" y="10659" width="8" height="17" class="foreground"/><use xlink:href="#g6" y="10659"/></g><g><rect x="0" y="11050" width="80" height="17" fill="#303030"/><use xlink:href="#g11" y="11050"/><use xlink:href="#g13" y="11067"/><use xlink:href="#g14" y="11084"/><rect x="0" y="11101" width="80" height="17" fill="#303030"/><rect x="120" y="11101" width="8" height="17" class="foreground"/><use xlink:href="#g7" y="11101"/></g><g><rect x="0" y="11492" width="80" height="17" fill="#303030"/><use xlink:href="#g11" y="11492"/><use xlink:href="#g13" y="11509"/><use xlink:href="#g14" y="11526"/><rect x="0" y="11543" width="80" height="17" fill="#303030"/><rect x="128" y="11543" width="8" height="17" class="foreground"/><use xlink:href="#g17" y="11543"/></g><g><rect x="0" y="11934" width="80" height="17" fill="#303030"/><use xlink:href="#g11" y="11934"/><use xlink:href="#g13" y="11951"/><use xlink:href="#g14" y="11968"/><rect x="0" y="11985" width="80" height="17" fill="#303030"/><rect x="136" y="11985" width="8" height="17" class="foreground"/><use xlink:href="#g18" y="11985"/></g><g><rect x="0" y="12376" width="80" height="17" fill="#303030"/><use xlink:href="#g11" y="12376"/><use xlink:href="#g13" y="12393"/><use xlink:href="#g14" y="12410"/><rect x="0" y="12427" width="80" height="17" fill="#303030"/><rect x="144" y="12427" width="8" height="17" class="foreground"/><use xlink:href="#g19" y="12427"/></g><g><rect x="0" y="12818" width="80" height="17" fill="#303030"/><use xlink:href="#g11" y="12818"/><use xlink:href="#g13" y="12835"/><use xlink:href="#g14" y="12852"/><rect x="0" y="12869" width="80" height="17" fill="#303030"/><rect x="152" y="12869" width="8" height="17" class="foreground"/><use xlink:href="#g20" y="12869"/></g><g><rect x="0" y="13260" width="80" height="17" fill="#303030"/><use xlink:href="#g11" y="13260"/><use xlink:href="#g13" y="13277"/><use xlink:href="#g14" y="13294"/><rect x="0" y="13311" width="80" height="17" fill="#303030"/><rect x="160" y="13311" width="8" height="17" class="foreground"/><use xlink:href="#g21" y="13311"/></g><g><rect x="0" y="13702" width="80" height="17" fill="#303030"/><use xlink:href="#g11" y="13702"/><use xlink:href="#g13" y="13719"/><use xlink:href="#g14" y="13736"/><rect x="0" y="13753" width="80" height="17" fill="#303030"/><rect x="168" y="13753" width="8" height="17" class="foreground"/><use xlink:href="#g22" y="13753"/></g><g><rect x="0" y="14144" width="80" height="17" fill="#303030"/><use xlink:href="#g11" y="14144"/><use xlink:href="#g13" y="14161"/><use xlink:href="#g14" y="14178"/><rect x="0" y="14195" width="80" height="17" fill="#303030"/><rect x="168" y="14195" width="8" height="17" class="foreground"/><use xlink:href="#g22" y="14195"/></g><g><rect x="0" y="14586" width="80" height="17" fill="#303030"/><use xlink:href="#g11" y="14586"/><use xlink:href="#g13" y="14603"/><use xlink:href="#g14" y="14620"/><rect x="0" y="14637" width="80" height="17" fill="#303030"/><use xlink:href="#g23" y="14637"/><rect x="0" y="14654" width="8" height="17" class="foreground"/><use xlink:href="#g12" y="14654"/></g><g><rect x="0" y="15028" width="80" height="17" fill="#303030"/><use xlink:href="#g11" y="15028"/><use xlink:href="#g13" y="15045"/><use xlink:href="#g14" y="15062"/><rect x="0" y="15079" width="80" height="17" fill="#303030"/><use xlink:href="#g23" y="15079"/><rect x="0" y="15096" width="8" height="17" class="foreground"/><use xlink:href="#g12" y="15096"/></g><g><rect x="0" y="15470" width="80" height="17" fill="#303030"/><use xlink:href="#g11" y="15470"/><use xlink:href="#g13" y="15487"/><use xlink:href="#g14" y="15504"/><rect x="0" y="15521" width="80" height="17" fill="#303030"/><use xlink:href="#g23" y="15521"/><use xlink:href="#g24" y="15538"/><use xlink:href="#g25" y="15555"/><rect x="0" y="15572" width="8" height="17" class="foreground"/><use xlink:href="#g12" y="15572"/></g><g><rect x="0" y="15912" width="80" height="17" fill="#303030"/><use xlink:href="#g11" y="15912"/><use xlink:href="#g13" y="15929"/><use xlink:href="#g14" y="15946"/><rect x="0" y="15963" width="80" height="17" fill="#303030"/><use xlink:href="#g23" y="15963"/><use xlink:href="#g24" y="15980"/><use xlink:href="#g25" y="15997"/><rect x="0" y="16014" width="8" height="17" class="foreground"/><use xlink:href="#g5" y="16014"/></g><g><rect x="0" y="16354" width="80" height="17" fill="#303030"/><use xlink:href="#g11" y="16354"/><use xlink:href="#g13" y="16371"/><use xlink:href="#g14" y="16388"/><rect x="0" y="16405" width="80" height="17" fill="#303030"/><use xlink:href="#g23" y="16405"/><use xlink:href="#g24" y="16422"/><use xlink:href="#g25" y="16439"/><use xlink:href="#g14" y="16456"/><rect x="0" y="16473" width="8" height="17" class="foreground"/><use xlink:href="#g12" y="16473"/></g><g><rect x="0" y="16796" width="80" height="17" fill="#303030"/><use xlink:href="#g11" y="16796"/><use xlink:href="#g13" y="16813"/><use xlink:href="#g14" y="16830"/><rect x="0" y="16847" width="80" height="17" fill="#303030"/><use xlink:href="#g23" y="16847"/><use xlink:href="#g24" y="16864"/><use xlink:href="#g25" y="16881"/><use xlink:href="#g14" y="16898"/><rect x="0" y="16915" width="80" height="17" fill="#303030"/><rect x="88" y="16915" width="8" height="17" class="foreground"/><use xlink:href="#g1" y="16915"/></g><g><rect x="0" y="17238" width="80" height="17" fill="#303030"/><use xlink:href="#g11" y="17238"/><use xlink:href="#g13" y="17255"/><use xlink:href="#g14" y="17272"/><rect x="0" y="17289" width="80" height="17" fill="#303030"/><use xlink:href="#g23" y="17289"/><use xlink:href="#g24" y="17306"/><use xlink:href="#g25" y="17323"/><use xlink:href="#g14" y="17340"/><rect x="0" y="17357" width="80" height="17" fill="#303030"/><rect x="88" y="17357" width="8" height="17" class="foreground"/><use xlink:href="#g1" y="17357"/></g><g><rect x="0" y="17680" width="80" height="17" fill="#303030"/><use xlink:href="#g11" y="17680"/><use xlink:href="#g13" y="17697"/><use xlink:href="#g14" y="17714"/><rect x="0" y="17731" width="80" height="17" fill="#303030"/><use xlink:href="#g23" y="17731"/><use xlink:href="#g24" y="17748"/><use xlink:href="#g25" y="17765"/><use xlink:href="#g14" y="17782"/><rect x="0" y="17799" width="80" height="17" fill="#303030"/><use xlink:href="#g26" y="17799"/><rect x="0" y="17816" width="8" height="17" class="foreground"/><use xlink:href="#g12" y="17816"/></g></g></svg>
</svg>