<svg xmlns="http://www.w3.org/2000/svg" xmlns:xlink="http://www.w3.org/1999/xlink" id="terminal" baseProfile="full" viewBox="0 0 640 427" width="640" version="1.1">
    <defs>
        <termtosvg:template_settings xmlns:termtosvg="https://github.com/nbedos/termtosvg">
            <termtosvg:screen_geometry columns="80" rows="25"/>
            <termtosvg:animation type="css"/>
        </termtosvg:template_settings>
        <style type="text/css" id="generated-style"><![CDATA[#screen {
                font-family: 'DejaVu Sans Mono', monospace;
                font-style: normal;
                font-size: 14px;
            }

        text {
            dominant-baseline: text-before-edge;
            white-space: pre;
        }
    
            :root {
                --animation-duration: 10076ms;
            }

            @keyframes roll {
                0.000%{transform:translateY(0px)}
15.472%{transform:translateY(-442px)}
16.763%{transform:translateY(-884px)}
16.792%{transform:translateY(-1326px)}
16.812%{transform:translateY(-1768px)}
16.822%{transform:translateY(-2210px)}
16.842%{transform:translateY(-2652px)}
16.872%{transform:translateY(-3094px)}
17.735%{transform:translateY(-3536px)}
18.628%{transform:translateY(-3978px)}
21.655%{transform:translateY(-4420px)}
24.583%{transform:translateY(-4862px)}
27.124%{transform:translateY(-5304px)}
36.324%{transform:translateY(-5746px)}
38.309%{transform:translateY(-6188px)}
40.810%{transform:translateY(-6630px)}
42.854%{transform:translateY(-7072px)}
44.145%{transform:translateY(-7514px)}
45.256%{transform:translateY(-7956px)}
46.765%{transform:translateY(-8398px)}
48.720%{transform:translateY(-8840px)}
50.447%{transform:translateY(-9282px)}
51.340%{transform:translateY(-9724px)}
52.094%{transform:translateY(-10166px)}
54.357%{transform:translateY(-10608px)}
54.377%{transform:translateY(-11050px)}
54.684%{transform:translateY(-11492px)}
54.694%{transform:translateY(-11934px)}
54.913%{transform:translateY(-12376px)}
54.923%{transform:translateY(-12818px)}
54.962%{transform:translateY(-13260px)}
60.867%{transform:translateY(-13702px)}
62.604%{transform:translateY(-14144px)}
63.468%{transform:translateY(-14586px)}
64.639%{transform:translateY(-15028px)}
65.324%{transform:translateY(-15470px)}
66.068%{transform:translateY(-15912px)}
68.132%{transform:translateY(-16354px)}
69.919%{transform:translateY(-16796px)}
70.901%{transform:translateY(-17238px)}
71.913%{transform:translateY(-17680px)}
72.598%{transform:translateY(-18122px)}
73.720%{transform:translateY(-18564px)}
75.198%{transform:translateY(-19006px)}
75.228%{transform:translateY(-19448px)}
75.248%{transform:translateY(-19890px)}
75.278%{transform:translateY(-20332px)}
75.526%{transform:translateY(-20774px)}
75.546%{transform:translateY(-21216px)}
75.764%{transform:translateY(-21658px)}
75.794%{transform:translateY(-22100px)}
90.075%{transform:translateY(-22542px)}
100.000%{transform:translateY(-22542px)}
            }

            #screen_view {
                animation-duration: 10076ms;
                animation-iteration-count:infinite;
                animation-name:roll;
                animation-timing-function: steps(1,end);
                animation-fill-mode: forwards;
            }
        ]]></style>
        <style type="text/css" id="user-style">
            /* The colors defined below are the default 16 colors used for rendering text of the terminal. Adjust
               them as needed.
               PowerShell colors based on https://en.wikipedia.org/wiki/ANSI_escape_code#Colors */
            .foreground {fill: #cccccc;}
            .background {fill: #0c0c0c;}
            .color0 {fill: #0c0c0c;}
            .color1 {fill: #c50f1f;}
            .color2 {fill: #13a10e;}
            .color3 {fill: #c19c00;}
            .color4 {fill: #0037da;}
            .color5 {fill: #881798;}
            .color6 {fill: #3a96dd;}
            .color7 {fill: #cccccc;}
            .color8 {fill: #767676;}
            .color9 {fill: #e74856;}
            .color10 {fill: #16c60c;}
            .color11 {fill: #f9f1a5;}
            .color12 {fill: #3b78ff;}
            .color13 {fill: #b4009e;}
            .color14 {fill: #61d6d6;}
            .color15 {fill: #f2f2f2;}
        </style>
    </defs>
    <svg id="screen" width="640" height="425" viewBox="0 0 640 425" preserveAspectRatio="xMidYMin slice">
    <rect class="background" height="100%" width="100%" x="0" y="0"/><defs><g id="g1"><text x="0" textLength="8" fill="#0087af"> </text><text x="8" textLength="8" font-weight="bold" fill="#00afff">~</text><text x="16" textLength="8" fill="#0087af"> </text><text x="24" textLength="608" fill="#585858">----------------------------------------------------------------------------</text><text x="632" textLength="8" class="foreground"> </text></g><g id="g2"><text x="0" textLength="8" fill="#5fd700">&gt;</text><text x="8" textLength="8" class="foreground"> </text><text x="16" textLength="8" class="background"> </text></g><g id="g3"><text x="0" textLength="8" fill="#5fd700">&gt;</text><text x="8" textLength="16" class="foreground"> c</text><text x="24" textLength="8" class="background"> </text></g><g id="g4"><text x="0" textLength="8" class="background"> </text><text x="8" textLength="632" class="foreground">                                                                               </text></g><g id="g5"><text x="0" textLength="24" class="foreground">   </text></g><g id="g6"><text x="0" textLength="8" fill="#5fd700">&gt;</text><text x="8" textLength="8" class="foreground"> </text><text x="16" textLength="8" class="background"> </text><text x="24" textLength="616" class="foreground">                                                                             </text></g><g id="g7"><text x="0" textLength="8" fill="#5fd700">&gt;</text><text x="8" textLength="8" class="foreground"> </text><text x="16" textLength="8" font-weight="bold" class="color9">c</text><text x="24" textLength="8" class="background"> </text><text x="32" textLength="608" class="foreground">                                                                            </text></g><g id="g8"><text x="0" textLength="8" fill="#5fd700">&gt;</text><text x="8" textLength="8" class="foreground"> </text><text x="16" textLength="16" class="color2">cd</text><text x="32" textLength="8" class="background"> </text><text x="40" textLength="600" class="foreground">                                                                           </text></g><g id="g9"><text x="0" textLength="8" fill="#5fd700">&gt;</text><text x="8" textLength="8" class="foreground"> </text><text x="16" textLength="16" class="color2">cd</text><text x="32" textLength="8" class="foreground"> </text><text x="40" textLength="8" class="background"> </text><text x="48" textLength="592" class="foreground">                                                                          </text></g><g id="g10"><text x="0" textLength="8" fill="#5fd700">&gt;</text><text x="8" textLength="8" class="foreground"> </text><text x="16" textLength="16" class="color2">cd</text><text x="32" textLength="8" class="foreground"> </text><text x="40" textLength="8" text-decoration="underline" class="color5">/</text><text x="48" textLength="8" class="background"> </text><text x="56" textLength="584" class="foreground">                                                                         </text></g><g id="g11"><text x="0" textLength="8" fill="#5fd700">&gt;</text><text x="8" textLength="8" class="foreground"> </text><text x="16" textLength="16" class="color2">cd</text><text x="32" textLength="24" class="foreground"> /u</text><text x="56" textLength="8" class="background"> </text><text x="64" textLength="576" class="foreground">                                                                        </text></g><g id="g12"><text x="0" textLength="8" fill="#5fd700">&gt;</text><text x="8" textLength="8" class="foreground"> </text><text x="16" textLength="16" class="color2">cd</text><text x="32" textLength="32" class="foreground"> /us</text><text x="64" textLength="8" class="background"> </text><text x="72" textLength="568" class="foreground">                                                                       </text></g><g id="g13"><text x="0" textLength="8" fill="#5fd700">&gt;</text><text x="8" textLength="8" class="foreground"> </text><text x="16" textLength="16" class="color2">cd</text><text x="32" textLength="8" class="foreground"> </text><text x="40" textLength="32" text-decoration="underline" class="color5">/usr</text><text x="72" textLength="8" class="background"> </text><text x="80" textLength="560" class="foreground">                                                                      </text></g><g id="g14"><text x="0" textLength="8" fill="#5fd700">&gt;</text><text x="8" textLength="8" class="foreground"> </text><text x="16" textLength="16" class="color2">cd</text><text x="32" textLength="8" class="foreground"> </text><text x="40" textLength="40" text-decoration="underline" class="color5">/usr/</text><text x="80" textLength="8" class="background"> </text><text x="88" textLength="552" class="foreground">                                                                     </text></g><g id="g15"><text x="0" textLength="8" fill="#5fd700">&gt;</text><text x="8" textLength="8" class="foreground"> </text><text x="16" textLength="16" class="color2">cd</text><text x="32" textLength="56" class="foreground"> /usr/l</text><text x="88" textLength="8" class="background"> </text><text x="96" textLength="544" class="foreground">                                                                    </text></g><g id="g16"><text x="0" textLength="8" fill="#5fd700">&gt;</text><text x="8" textLength="8" class="foreground"> </text><text x="16" textLength="16" class="color2">cd</text><text x="32" textLength="64" class="foreground"> /usr/lo</text><text x="96" textLength="8" class="background"> </text><text x="104" textLength="536" class="foreground">                                                                   </text></g><g id="g17"><text x="0" textLength="8" fill="#5fd700">&gt;</text><text x="8" textLength="8" class="foreground"> </text><text x="16" textLength="16" class="color2">cd</text><text x="32" textLength="72" class="foreground"> /usr/loc</text><text x="104" textLength="8" class="background"> </text><text x="112" textLength="528" class="foreground">                                                                  </text></g><g id="g18"><text x="0" textLength="8" fill="#5fd700">&gt;</text><text x="8" textLength="8" class="foreground"> </text><text x="16" textLength="16" class="color2">cd</text><text x="32" textLength="80" class="foreground"> /usr/loca</text><text x="112" textLength="8" class="background"> </text><text x="120" textLength="520" class="foreground">                                                                 </text></g><g id="g19"><text x="0" textLength="8" fill="#5fd700">&gt;</text><text x="8" textLength="8" class="foreground"> </text><text x="16" textLength="16" class="color2">cd</text><text x="32" textLength="8" class="foreground"> </text><text x="40" textLength="80" text-decoration="underline" class="color5">/usr/local</text><text x="120" textLength="8" class="background"> </text><text x="128" textLength="512" class="foreground">                                                                </text></g><g id="g20"><text x="0" textLength="8" fill="#5fd700">&gt;</text><text x="8" textLength="8" class="foreground"> </text><text x="16" textLength="16" class="color2">cd</text><text x="32" textLength="8" class="foreground"> </text><text x="40" textLength="88" text-decoration="underline" class="color5">/usr/local/</text><text x="128" textLength="8" class="background"> </text><text x="136" textLength="504" class="foreground">                                                               </text></g><g id="g21"><text x="0" textLength="8" fill="#5fd700">&gt;</text><text x="8" textLength="8" class="foreground"> </text><text x="16" textLength="16" class="color2">cd</text><text x="32" textLength="104" class="foreground"> /usr/local/b</text><text x="136" textLength="8" class="background"> </text><text x="144" textLength="496" class="foreground">                                                              </text></g><g id="g22"><text x="0" textLength="8" fill="#5fd700">&gt;</text><text x="8" textLength="8" class="foreground"> </text><text x="16" textLength="16" class="color2">cd</text><text x="32" textLength="112" class="foreground"> /usr/local/bi</text><text x="144" textLength="8" class="background"> </text><text x="152" textLength="488" class="foreground">                                                             </text></g><g id="g23"><text x="0" textLength="8" fill="#5fd700">&gt;</text><text x="8" textLength="8" class="foreground"> </text><text x="16" textLength="16" class="color2">cd</text><text x="32" textLength="8" class="foreground"> </text><text x="40" textLength="112" text-decoration="underline" class="color5">/usr/local/bin</text><text x="152" textLength="8" class="background"> </text><text x="160" textLength="480" class="foreground">                                                            </text></g><g id="g24"><text x="0" textLength="8" fill="#5fd700">&gt;</text><text x="8" textLength="8" class="foreground"> </text><text x="16" textLength="16" class="color2">cd</text><text x="32" textLength="8" class="foreground"> </text><text x="40" textLength="112" text-decoration="underline" class="color5">/usr/local/bin</text><text x="152" textLength="488" class="foreground">                                                             </text></g><g id="g25"><text x="0" textLength="8" class="background"> </text></g><g id="g26"><text x="0" textLength="16" fill="#0087af"> /</text><text x="16" textLength="24" font-weight="bold" fill="#00afff">usr</text><text x="40" textLength="56" fill="#0087af">/local/</text><text x="96" textLength="24" font-weight="bold" fill="#00afff">bin</text><text x="120" textLength="8" fill="#0087af"> </text><text x="128" textLength="504" fill="#585858">---------------------------------------------------------------</text><text x="632" textLength="8" class="foreground"> </text></g><g id="g27"><text x="0" textLength="8" fill="#5fd700">&gt;</text><text x="8" textLength="8" class="foreground"> </text><text x="16" textLength="16" class="color2">cd</text><text x="32" textLength="16" class="foreground"> b</text><text x="48" textLength="8" class="background"> </text><text x="56" textLength="584" class="foreground">                                                                         </text></g><g id="g28"><text x="0" textLength="8" fill="#5fd700">&gt;</text><text x="8" textLength="8" class="foreground"> </text><text x="16" textLength="16" class="color2">cd</text><text x="32" textLength="24" class="foreground"> bi</text><text x="56" textLength="8" class="background"> </text><text x="64" textLength="576" class="foreground">                                                                        </text></g><g id="g29"><text x="0" textLength="8" fill="#5fd700">&gt;</text><text x="8" textLength="8" class="foreground"> </text><text x="16" textLength="16" class="color2">cd</text><text x="32" textLength="32" class="foreground"> bin</text><text x="64" textLength="8" class="background"> </text><text x="72" textLength="568" class="foreground">                                                                       </text></g><g id="g30"><text x="0" textLength="8" fill="#5fd700">&gt;</text><text x="8" textLength="8" class="foreground"> </text><text x="16" textLength="16" class="color2">cd</text><text x="32" textLength="40" class="foreground"> bin </text><text x="72" textLength="8" class="background"> </text><text x="80" textLength="560" class="foreground">                                                                      </text></g><g id="g31"><text x="0" textLength="8" fill="#5fd700">&gt;</text><text x="8" textLength="8" class="foreground"> </text><text x="16" textLength="16" class="color2">cd</text><text x="32" textLength="48" class="foreground"> bin s</text><text x="80" textLength="8" class="background"> </text><text x="88" textLength="552" class="foreground">                                                                     </text></g><g id="g32"><text x="0" textLength="8" fill="#5fd700">&gt;</text><text x="8" textLength="8" class="foreground"> </text><text x="16" textLength="16" class="color2">cd</text><text x="32" textLength="56" class="foreground"> bin sh</text><text x="88" textLength="8" class="background"> </text><text x="96" textLength="544" class="foreground">                                                                    </text></g><g id="g33"><text x="0" textLength="8" fill="#5fd700">&gt;</text><text x="8" textLength="8" class="foreground"> </text><text x="16" textLength="16" class="color2">cd</text><text x="32" textLength="64" class="foreground"> bin sha</text><text x="96" textLength="8" class="background"> </text><text x="104" textLength="536" class="foreground">                                                                   </text></g><g id="g34"><text x="0" textLength="8" fill="#5fd700">&gt;</text><text x="8" textLength="8" class="foreground"> </text><text x="16" textLength="16" class="color2">cd</text><text x="32" textLength="72" class="foreground"> bin shar</text><text x="104" textLength="8" class="background"> </text><text x="112" textLength="528" class="foreground">                                                                  </text></g><g id="g35"><text x="0" textLength="8" fill="#5fd700">&gt;</text><text x="8" textLength="8" class="foreground"> </text><text x="16" textLength="16" class="color2">cd</text><text x="32" textLength="80" class="foreground"> bin share</text><text x="112" textLength="8" class="background"> </text><text x="120" textLength="520" class="foreground">                                                                 </text></g><g id="g36"><text x="0" textLength="8" fill="#5fd700">&gt;</text><text x="8" textLength="8" class="foreground"> </text><text x="16" textLength="16" class="color2">cd</text><text x="32" textLength="608" class="foreground"> bin share                                                                  </text></g><g id="g37"><text x="0" textLength="128" class="foreground">/usr/local/share</text></g><g id="g38"><text x="0" textLength="16" fill="#0087af"> /</text><text x="16" textLength="24" font-weight="bold" fill="#00afff">usr</text><text x="40" textLength="56" fill="#0087af">/local/</text><text x="96" textLength="40" font-weight="bold" fill="#00afff">share</text><text x="136" textLength="8" fill="#0087af"> </text><text x="144" textLength="488" fill="#585858">-------------------------------------------------------------</text><text x="632" textLength="8" class="foreground"> </text></g><g id="g39"><text x="0" textLength="8" fill="#5fd700">&gt;</text><text x="8" textLength="632" class="foreground">                                                                               </text></g></defs><g id="screen_view"><g><rect x="0" y="0" width="24" height="17" fill="#303030"/><use xlink:href="#g1" y="0"/><rect x="16" y="17" width="8" height="17" class="foreground"/><use xlink:href="#g2" y="17"/></g><g><rect x="0" y="442" width="24" height="17" fill="#303030"/><use xlink:href="#g1" y="442"/><rect x="24" y="459" width="8" height="17" class="foreground"/><use xlink:href="#g3" y="459"/></g><g><rect x="0" y="884" width="8" height="17" class="foreground"/><use xlink:href="#g4" y="884"/><use xlink:href="#g5" y="901"/></g><g><rect x="0" y="1326" width="8" height="17" class="foreground"/><use xlink:href="#g4" y="1326"/><use xlink:href="#g5" y="1343"/></g><g><rect x="0" y="1768" width="24" height="17" fill="#303030"/><use xlink:href="#g1" y="1768"/><rect x="16" y="1785" width="8" height="17" class="foreground"/><use xlink:href="#g6" y="1785"/></g><g><rect x="0" y="2210" width="24" height="17" fill="#303030"/><use xlink:href="#g1" y="2210"/><rect x="16" y="2227" width="8" height="17" class="foreground"/><use xlink:href="#g6" y="2227"/></g><g><rect x="0" y="2652" width="24" height="17" fill="#303030"/><use xlink:href="#g1" y="2652"/><rect x="16" y="2669" width="8" height="17" class="foreground"/><use xlink:href="#g6" y="2669"/></g><g><rect x="0" y="3094" width="24" height="17" fill="#303030"/><use xlink:href="#g1" y="3094"/><rect x="24" y="3111" width="8" height="17" class="foreground"/><use xlink:href="#g7" y="3111"/></g><g><rect x="0" y="3536" width="24" height="17" fill="#303030"/><use xlink:href="#g1" y="3536"/><rect x="32" y="3553" width="8" height="17" class="foreground"/><use xlink:href="#g8" y="3553"/></g><g><rect x="0" y="3978" width="24" height="17" fill="#303030"/><use xlink:href="#g1" y="3978"/><rect x="40" y="3995" width="8" height="17" class="foreground"/><use xlink:href="#g9" y="3995"/></g><g><rect x="0" y="4420" width="24" height="17" fill="#303030"/><use xlink:href="#g1" y="4420"/><rect x="48" y="4437" width="8" height="17" class="foreground"/><use xlink:href="#g10" y="4437"/></g><g><rect x="0" y="4862" width="24" height="17" fill="#303030"/><use xlink:href="#g1" y="4862"/><rect x="56" y="4879" width="8" height="17" class="foreground"/><use xlink:href="#g11" y="4879"/></g><g><rect x="0" y="5304" width="24" height="17" fill="#303030"/><use xlink:href="#g1" y="5304"/><rect x="64" y="5321" width="8" height="17" class="foreground"/><use xlink:href="#g12" y="5321"/></g><g><rect x="0" y="5746" width="24" height="17" fill="#303030"/><use xlink:href="#g1" y="5746"/><rect x="72" y="5763" width="8" height="17" class="foreground"/><use xlink:href="#g13" y="5763"/></g><g><rect x="0" y="6188" width="24" height="17" fill="#303030"/><use xlink:href="#g1" y="6188"/><rect x="80" y="6205" width="8" height="17" class="foreground"/><use xlink:href="#g14" y="6205"/></g><g><rect x="0" y="6630" width="24" height="17" fill="#303030"/><use xlink:href="#g1" y="6630"/><rect x="88" y="6647" width="8" height="17" class="foreground"/><use xlink:href="#g15" y="6647"/></g><g><rect x="0" y="7072" width="24" height="17" fill="#303030"/><use xlink:href="#g1" y="7072"/><rect x="96" y="7089" width="8" height="17" class="foreground"/><use xlink:href="#g16" y="7089"/></g><g><rect x="0" y="7514" width="24" height="17" fill="#303030"/><use xlink:href="#g1" y="7514"/><rect x="104" y="7531" width="8" height="17" class="foreground"/><use xlink:href="#g17" y="7531"/></g><g><rect x="0" y="7956" width="24" height="17" fill="#303030"/><use xlink:href="#g1" y="7956"/><rect x="112" y="7973" width="8" height="17" class="foreground"/><use xlink:href="#g18" y="7973"/></g><g><rect x="0" y="8398" width="24" height="17" fill="#303030"/><use xlink:href="#g1" y="8398"/><rect x="120" y="8415" width="8" height="17" class="foreground"/><use xlink:href="#g19" y="8415"/></g><g><rect x="0" y="8840" width="24" height="17" fill="#303030"/><use xlink:href="#g1" y="8840"/><rect x="128" y="8857" width="8" height="17" class="foreground"/><use xlink:href="#g20" y="8857"/></g><g><rect x="0" y="9282" width="24" height="17" fill="#303030"/><use xlink:href="#g1" y="9282"/><rect x="136" y="9299" width="8" height="17" class="foreground"/><use xlink:href="#g21" y="9299"/></g><g><rect x="0" y="9724" width="24" height="17" fill="#303030"/><use xlink:href="#g1" y="9724"/><rect x="144" y="9741" width="8" height="17" class="foreground"/><use xlink:href="#g22" y="9741"/></g><g><rect x="0" y="10166" width="24" height="17" fill="#303030"/><use xlink:href="#g1" y="10166"/><rect x="152" y="10183" width="8" height="17" class="foreground"/><use xlink:href="#g23" y="10183"/></g><g><rect x="0" y="10608" width="24" height="17" fill="#303030"/><use xlink:href="#g1" y="10608"/><rect x="152" y="10625" width="8" height="17" class="foreground"/><use xlink:href="#g23" y="10625"/></g><g><rect x="0" y="11050" width="24" height="17" fill="#303030"/><use xlink:href="#g1" y="11050"/><use xlink:href="#g24" y="11067"/><rect x="0" y="11084" width="8" height="17" class="foreground"/><use xlink:href="#g25" y="11084"/></g><g><rect x="0" y="11492" width="24" height="17" fill="#303030"/><use xlink:href="#g1" y="11492"/><use xlink:href="#g24" y="11509"/><rect x="0" y="11526" width="8" height="17" class="foreground"/><use xlink:href="#g4" y="11526"/></g><g><rect x="0" y="11934" width="24" height="17" fill="#303030"/><use xlink:href="#g1" y="11934"/><use xlink:href="#g24" y="11951"/><rect x="0" y="11968" width="8" height="17" class="foreground"/><use xlink:href="#g4" y="11968"/></g><g><rect x="0" y="12376" width="24" height="17" fill="#303030"/><use xlink:href="#g1" y="12376"/><use xlink:href="#g24" y="12393"/><rect x="0" y="12410" width="128" height="17" fill="#303030"/><use xlink:href="#g26" y="12410"/><rect x="16" y="12427" width="8" height="17" class="foreground"/><use xlink:href="#g6" y="12427"/></g><g><rect x="0" y="12818" width="24" height="17" fill="#303030"/><use xlink:href="#g1" y="12818"/><use xlink:href="#g24" y="12835"/><rect x="0" y="12852" width="128" height="17" fill="#303030"/><use xlink:href="#g26" y="12852"/><rect x="16" y="12869" width="8" height="17" class="foreground"/><use xlink:href="#g6" y="12869"/></g><g><rect x="0" y="13260" width="24" height="17" fill="#303030"/><use xlink:href="#g1" y="13260"/><use xlink:href="#g24" y="13277"/><rect x="0" y="13294" width="128" height="17" fill="#303030"/><use xlink:href="#g26" y="13294"/><rect x="16" y="13311" width="8" height="17" class="foreground"/><use xlink:href="#g6" y="13311"/></g><g><rect x="0" y="13702" width="24" height="17" fill="#303030"/><use xlink:href="#g1" y="13702"/><use xlink:href="#g24" y="13719"/><rect x="0" y="13736" width="128" height="17" fill="#303030"/><use xlink:href="#g26" y="13736"/><rect x="24" y="13753" width="8" height="17" class="foreground"/><use xlink:href="#g7" y="13753"/></g><g><rect x="0" y="14144" width="24" height="17" fill="#303030"/><use xlink:href="#g1" y="14144"/><use xlink:href="#g24" y="14161"/><rect x="0" y="14178" width="128" height="17" fill="#303030"/><use xlink:href="#g26" y="14178"/><rect x="32" y="14195" width="8" height="17" class="foreground"/><use xlink:href="#g8" y="14195"/></g><g><rect x="0" y="14586" width="24" height="17" fill="#303030"/><use xlink:href="#g1" y="14586"/><use xlink:href="#g24" y="14603"/><rect x="0" y="14620" width="128" height="17" fill="#303030"/><use xlink:href="#g26" y="14620"/><rect x="40" y="14637" width="8" height="17" class="foreground"/><use xlink:href="#g9" y="14637"/></g><g><rect x="0" y="15028" width="24" height="17" fill="#303030"/><use xlink:href="#g1" y="15028"/><use xlink:href="#g24" y="15045"/><rect x="0" y="15062" width="128" height="17" fill="#303030"/><use xlink:href="#g26" y="15062"/><rect x="48" y="15079" width="8" height="17" class="foreground"/><use xlink:href="#g27" y="15079"/></g><g><rect x="0" y="15470" width="24" height="17" fill="#303030"/><use xlink:href="#g1" y="15470"/><use xlink:href="#g24" y="15487"/><rect x="0" y="15504" width="128" height="17" fill="#303030"/><use xlink:href="#g26" y="15504"/><rect x="56" y="15521" width="8" height="17" class="foreground"/><use xlink:href="#g28" y="15521"/></g><g><rect x="0" y="15912" width="24" height="17" fill="#303030"/><use xlink:href="#g1" y="15912"/><use xlink:href="#g24" y="15929"/><rect x="0" y="15946" width="128" height="17" fill="#303030"/><use xlink:href="#g26" y="15946"/><rect x="64" y="15963" width="8" height="17" class="foreground"/><use xlink:href="#g29" y="15963"/></g><g><rect x="0" y="16354" width="24" height="17" fill="#303030"/><use xlink:href="#g1" y="16354"/><use xlink:href="#g24" y="16371"/><rect x="0" y="16388" width="128" height="17" fill="#303030"/><use xlink:href="#g26" y="16388"/><rect x="72" y="16405" width="8" height="17" class="foreground"/><use xlink:href="#g30" y="16405"/></g><g><rect x="0" y="16796" width="24" height="17" fill="#303030"/><use xlink:href="#g1" y="16796"/><use xlink:href="#g24" y="16813"/><rect x="0" y="16830" width="128" height="17" fill="#303030"/><use xlink:href="#g26" y="16830"/><rect x="80" y="16847" width="8" height="17" class="foreground"/><use xlink:href="#g31" y="16847"/></g><g><rect x="0" y="17238" width="24" height="17" fill="#303030"/><use xlink:href="#g1" y="17238"/><use xlink:href="#g24" y="17255"/><rect x="0" y="17272" width="128" height="17" fill="#303030"/><use xlink:href="#g26" y="17272"/><rect x="88" y="17289" width="8" height="17" class="foreground"/><use xlink:href="#g32" y="17289"/></g><g><rect x="0" y="17680" width="24" height="17" fill="#303030"/><use xlink:href="#g1" y="17680"/><use xlink:href="#g24" y="17697"/><rect x="0" y="17714" width="128" height="17" fill="#303030"/><use xlink:href="#g26" y="17714"/><rect x="96" y="17731" width="8" height="17" class="foreground"/><use xlink:href="#g33" y="17731"/></g><g><rect x="0" y="18122" width="24" height="17" fill="#303030"/><use xlink:href="#g1" y="18122"/><use xlink:href="#g24" y="18139"/><rect x="0" y="18156" width="128" height="17" fill="#303030"/><use xlink:href="#g26" y="18156"/><rect x="104" y="18173" width="8" height="17" class="foreground"/><use xlink:href="#g34" y="18173"/></g><g><rect x="0" y="18564" width="24" height="17" fill="#303030"/><use xlink:href="#g1" y="18564"/><use xlink:href="#g24" y="18581"/><rect x="0" y="18598" width="128" height="17" fill="#303030"/><use xlink:href="#g26" y="18598"/><rect x="112" y="18615" width="8" height="17" class="foreground"/><use xlink:href="#g35" y="18615"/></g><g><rect x="0" y="19006" width="24" height="17" fill="#303030"/><use xlink:href="#g1" y="19006"/><use xlink:href="#g24" y="19023"/><rect x="0" y="19040" width="128" height="17" fill="#303030"/><use xlink:href="#g26" y="19040"/><rect x="112" y="19057" width="8" height="17" class="foreground"/><use xlink:href="#g35" y="19057"/></g><g><rect x="0" y="19448" width="24" height="17" fill="#303030"/><use xlink:href="#g1" y="19448"/><use xlink:href="#g24" y="19465"/><rect x="0" y="19482" width="128" height="17" fill="#303030"/><use xlink:href="#g26" y="19482"/><use xlink:href="#g36" y="19499"/><rect x="0" y="19516" width="8" height="17" class="foreground"/><use xlink:href="#g25" y="19516"/></g><g><rect x="0" y="19890" width="24" height="17" fill="#303030"/><use xlink:href="#g1" y="19890"/><use xlink:href="#g24" y="19907"/><rect x="0" y="19924" width="128" height="17" fill="#303030"/><use xlink:href="#g26" y="19924"/><use xlink:href="#g36" y="19941"/><rect x="0" y="19958" width="8" height="17" class="foreground"/><use xlink:href="#g25" y="19958"/></g><g><rect x="0" y="20332" width="24" height="17" fill="#303030"/><use xlink:href="#g1" y="20332"/><use xlink:href="#g24" y="20349"/><rect x="0" y="20366" width="128" height="17" fill="#303030"/><use xlink:href="#g26" y="20366"/><use xlink:href="#g36" y="20383"/><use xlink:href="#g37" y="20400"/><rect x="0" y="20417" width="8" height="17" class="foreground"/><use xlink:href="#g25" y="20417"/></g><g><rect x="0" y="20774" width="24" height="17" fill="#303030"/><use xlink:href="#g1" y="20774"/><use xlink:href="#g24" y="20791"/><rect x="0" y="20808" width="128" height="17" fill="#303030"/><use xlink:href="#g26" y="20808"/><use xlink:href="#g36" y="20825"/><use xlink:href="#g37" y="20842"/><rect x="0" y="20859" width="8" height="17" class="foreground"/><use xlink:href="#g4" y="20859"/></g><g><rect x="0" y="21216" width="24" height="17" fill="#303030"/><use xlink:href="#g1" y="21216"/><use xlink:href="#g24" y="21233"/><rect x="0" y="21250" width="128" height="17" fill="#303030"/><use xlink:href="#g26" y="21250"/><use xlink:href="#g36" y="21267"/><use xlink:href="#g37" y="21284"/><rect x="0" y="21301" width="8" height="17" class="foreground"/><use xlink:href="#g4" y="21301"/></g><g><rect x="0" y="21658" width="24" height="17" fill="#303030"/><use xlink:href="#g1" y="21658"/><use xlink:href="#g24" y="21675"/><rect x="0" y="21692" width="128" height="17" fill="#303030"/><use xlink:href="#g26" y="21692"/><use xlink:href="#g36" y="21709"/><use xlink:href="#g37" y="21726"/><rect x="0" y="21743" width="144" height="17" fill="#303030"/><use xlink:href="#g38" y="21743"/><rect x="16" y="21760" width="8" height="17" class="foreground"/><use xlink:href="#g6" y="21760"/></g><g><rect x="0" y="22100" width="24" height="17" fill="#303030"/><use xlink:href="#g1" y="22100"/><use xlink:href="#g24" y="22117"/><rect x="0" y="22134" width="128" height="17" fill="#303030"/><use xlink:href="#g26" y="22134"/><use xlink:href="#g36" y="22151"/><use xlink:href="#g37" y="22168"/><rect x="0" y="22185" width="144" height="17" fill="#303030"/><use xlink:href="#g38" y="22185"/><rect x="16" y="22202" width="8" height="17" class="foreground"/><use xlink:href="#g6" y="22202"/></g><g><rect x="0" y="22542" width="24" height="17" fill="#303030"/><use xlink:href="#g1" y="22542"/><use xlink:href="#g24" y="22559"/><rect x="0" y="22576" width="128" height="17" fill="#303030"/><use xlink:href="#g26" y="22576"/><use xlink:href="#g36" y="22593"/><use xlink:href="#g37" y="22610"/><rect x="0" y="22627" width="144" height="17" fill="#303030"/><use xlink:href="#g38" y="22627"/><use xlink:href="#g39" y="22644"/><rect x="0" y="22661" width="8" height="17" class="foreground"/><use xlink:href="#g25" y="22661"/></g></g></svg>
</svg>