<svg xmlns="http://www.w3.org/2000/svg" xmlns:xlink="http://www.w3.org/1999/xlink" id="terminal" baseProfile="full" viewBox="0 0 640 427" width="640" version="1.1">
    <defs>
        <termtosvg:template_settings xmlns:termtosvg="https://github.com/nbedos/termtosvg">
            <termtosvg:screen_geometry columns="80" rows="25"/>
            <termtosvg:animation type="css"/>
        </termtosvg:template_settings>
        <style type="text/css" id="generated-style"><![CDATA[#screen {
                font-family: 'DejaVu Sans Mono', monospace;
                font-style: normal;
                font-size: 14px;
            }

        text {
            dominant-baseline: text-before-edge;
            white-space: pre;
        }
    
            :root {
                --animation-duration: 7421ms;
            }

            @keyframes roll {
                0.000%{transform:translateY(0px)}
5.242%{transform:translateY(-442px)}
10.147%{transform:translateY(-884px)}
24.323%{transform:translateY(-1326px)}
24.336%{transform:translateY(-1768px)}
24.377%{transform:translateY(-2210px)}
24.431%{transform:translateY(-2652px)}
24.458%{transform:translateY(-3094px)}
24.471%{transform:translateY(-3536px)}
24.498%{transform:translateY(-3978px)}
24.512%{transform:translateY(-4420px)}
24.525%{transform:translateY(-4862px)}
24.552%{transform:translateY(-5304px)}
24.565%{transform:translateY(-5746px)}
24.579%{transform:translateY(-6188px)}
24.606%{transform:translateY(-6630px)}
24.619%{transform:translateY(-7072px)}
24.633%{transform:translateY(-7514px)}
24.646%{transform:translateY(-7956px)}
24.673%{transform:translateY(-8398px)}
24.687%{transform:translateY(-8840px)}
24.700%{transform:translateY(-9282px)}
24.714%{transform:translateY(-9724px)}
24.741%{transform:translateY(-10166px)}
24.768%{transform:translateY(-10608px)}
24.781%{transform:translateY(-11050px)}
24.808%{transform:translateY(-11492px)}
24.821%{transform:translateY(-11934px)}
24.848%{transform:translateY(-12376px)}
24.889%{transform:translateY(-12818px)}
24.929%{transform:translateY(-13260px)}
24.956%{transform:translateY(-13702px)}
25.010%{transform:translateY(-14144px)}
25.266%{transform:translateY(-14586px)}
25.293%{transform:translateY(-15028px)}
25.320%{transform:translateY(-15470px)}
25.347%{transform:translateY(-15912px)}
34.052%{transform:translateY(-16354px)}
35.440%{transform:translateY(-16796px)}
35.480%{transform:translateY(-17238px)}
35.521%{transform:translateY(-17680px)}
35.548%{transform:translateY(-18122px)}
76.108%{transform:translateY(-18564px)}
76.149%{transform:translateY(-19006px)}
81.283%{transform:translateY(-19448px)}
81.323%{transform:translateY(-19890px)}
81.350%{transform:translateY(-20332px)}
86.525%{transform:translateY(-20774px)}
100.000%{transform:translateY(-20774px)}
            }

            #screen_view {
                animation-duration: 7421ms;
                animation-iteration-count:infinite;
                animation-name:roll;
                animation-timing-function: steps(1,end);
                animation-fill-mode: forwards;
            }
        ]]></style>
        <style type="text/css" id="user-style">
            /* The colors defined below are the default 16 colors used for rendering text of the terminal. Adjust
               them as needed.
               PowerShell colors based on https://en.wikipedia.org/wiki/ANSI_escape_code#Colors */
            .foreground {fill: #cccccc;}
            .background {fill: #0c0c0c;}
            .color0 {fill: #0c0c0c;}
            .color1 {fill: #c50f1f;}
            .color2 {fill: #13a10e;}
            .color3 {fill: #c19c00;}
            .color4 {fill: #0037da;}
            .color5 {fill: #881798;}
            .color6 {fill: #3a96dd;}
            .color7 {fill: #cccccc;}
            .color8 {fill: #767676;}
            .color9 {fill: #e74856;}
            .color10 {fill: #16c60c;}
            .color11 {fill: #f9f1a5;}
            .color12 {fill: #3b78ff;}
            .color13 {fill: #b4009e;}
            .color14 {fill: #61d6d6;}
            .color15 {fill: #f2f2f2;}
        </style>
    </defs>
    <svg id="screen" width="640" height="425" viewBox="0 0 640 425" preserveAspectRatio="xMidYMin slice">
    <rect class="background" height="100%" width="100%" x="0" y="0"/><defs><g id="g1"><text x="0" textLength="8" fill="#0087af"> </text><text x="8" textLength="8" font-weight="bold" fill="#00afff">~</text><text x="16" textLength="8" fill="#0087af"> </text><text x="24" textLength="8" class="foreground"> </text><text x="32" textLength="8" class="background"> </text><text x="40" textLength="600" class="foreground">                                                                           </text></g><g id="g2"><text x="0" textLength="8" fill="#0087af"> </text><text x="8" textLength="8" font-weight="bold" fill="#00afff">~</text><text x="16" textLength="8" fill="#0087af"> </text><text x="24" textLength="296" class="foreground"> echo 'See my prompt? Simple, right?'</text><text x="320" textLength="8" class="background"> </text><text x="328" textLength="312" class="foreground">                                       </text></g><g id="g3"><text x="0" textLength="8" fill="#0087af"> </text><text x="8" textLength="8" font-weight="bold" fill="#00afff">~</text><text x="16" textLength="8" fill="#0087af"> </text><text x="24" textLength="616" class="foreground"> echo 'See my prompt? Simple, right?'                                        </text></g><g id="g4"><text x="0" textLength="8" class="background"> </text></g><g id="g5"><text x="0" textLength="8" class="background"> </text><text x="8" textLength="632" class="foreground">                                                                               </text></g><g id="g6"><text x="0" textLength="8" fill="#0087af"> </text><text x="8" textLength="8" font-weight="bold" fill="#00afff">~</text><text x="16" textLength="8" fill="#0087af"> </text><text x="24" textLength="16" class="foreground"> e</text><text x="40" textLength="8" class="background"> </text><text x="48" textLength="592" class="foreground">                                                                          </text></g><g id="g7"><text x="0" textLength="8" fill="#0087af"> </text><text x="8" textLength="8" font-weight="bold" fill="#00afff">~</text><text x="16" textLength="8" fill="#0087af"> </text><text x="24" textLength="32" class="foreground"> ech</text><text x="56" textLength="8" class="background"> </text><text x="64" textLength="576" class="foreground">                                                                        </text></g><g id="g8"><text x="0" textLength="8" fill="#0087af"> </text><text x="8" textLength="8" font-weight="bold" fill="#00afff">~</text><text x="16" textLength="8" fill="#0087af"> </text><text x="24" textLength="40" class="foreground"> echo</text><text x="64" textLength="8" class="background"> </text><text x="72" textLength="568" class="foreground">                                                                       </text></g><g id="g9"><text x="0" textLength="8" fill="#0087af"> </text><text x="8" textLength="8" font-weight="bold" fill="#00afff">~</text><text x="16" textLength="8" fill="#0087af"> </text><text x="24" textLength="56" class="foreground"> echo '</text><text x="80" textLength="8" class="background"> </text><text x="88" textLength="552" class="foreground">                                                                     </text></g><g id="g10"><text x="0" textLength="8" fill="#0087af"> </text><text x="8" textLength="8" font-weight="bold" fill="#00afff">~</text><text x="16" textLength="8" fill="#0087af"> </text><text x="24" textLength="72" class="foreground"> echo 'Se</text><text x="96" textLength="8" class="background"> </text><text x="104" textLength="536" class="foreground">                                                                   </text></g><g id="g11"><text x="0" textLength="8" fill="#0087af"> </text><text x="8" textLength="8" font-weight="bold" fill="#00afff">~</text><text x="16" textLength="8" fill="#0087af"> </text><text x="24" textLength="88" class="foreground"> echo 'See </text><text x="112" textLength="8" class="background"> </text><text x="120" textLength="520" class="foreground">                                                                 </text></g><g id="g12"><text x="0" textLength="8" fill="#0087af"> </text><text x="8" textLength="8" font-weight="bold" fill="#00afff">~</text><text x="16" textLength="8" fill="#0087af"> </text><text x="24" textLength="104" class="foreground"> echo 'See my</text><text x="128" textLength="8" class="background"> </text><text x="136" textLength="504" class="foreground">                                                               </text></g><g id="g13"><text x="0" textLength="8" fill="#0087af"> </text><text x="8" textLength="8" font-weight="bold" fill="#00afff">~</text><text x="16" textLength="8" fill="#0087af"> </text><text x="24" textLength="112" class="foreground"> echo 'See my </text><text x="136" textLength="8" class="background"> </text><text x="144" textLength="496" class="foreground">                                                              </text></g><g id="g14"><text x="0" textLength="8" fill="#0087af"> </text><text x="8" textLength="8" font-weight="bold" fill="#00afff">~</text><text x="16" textLength="8" fill="#0087af"> </text><text x="24" textLength="128" class="foreground"> echo 'See my pr</text><text x="152" textLength="8" class="background"> </text><text x="160" textLength="480" class="foreground">                                                            </text></g><g id="g15"><text x="0" textLength="8" fill="#0087af"> </text><text x="8" textLength="8" font-weight="bold" fill="#00afff">~</text><text x="16" textLength="8" fill="#0087af"> </text><text x="24" textLength="136" class="foreground"> echo 'See my pro</text><text x="160" textLength="8" class="background"> </text><text x="168" textLength="472" class="foreground">                                                           </text></g><g id="g16"><text x="0" textLength="8" fill="#0087af"> </text><text x="8" textLength="8" font-weight="bold" fill="#00afff">~</text><text x="16" textLength="8" fill="#0087af"> </text><text x="24" textLength="152" class="foreground"> echo 'See my promp</text><text x="176" textLength="8" class="background"> </text><text x="184" textLength="456" class="foreground">                                                         </text></g><g id="g17"><text x="0" textLength="8" fill="#0087af"> </text><text x="8" textLength="8" font-weight="bold" fill="#00afff">~</text><text x="16" textLength="8" fill="#0087af"> </text><text x="24" textLength="168" class="foreground"> echo 'See my prompt?</text><text x="192" textLength="8" class="background"> </text><text x="200" textLength="440" class="foreground">                                                       </text></g><g id="g18"><text x="0" textLength="8" fill="#0087af"> </text><text x="8" textLength="8" font-weight="bold" fill="#00afff">~</text><text x="16" textLength="8" fill="#0087af"> </text><text x="24" textLength="176" class="foreground"> echo 'See my prompt? </text><text x="200" textLength="8" class="background"> </text><text x="208" textLength="432" class="foreground">                                                      </text></g><g id="g19"><text x="0" textLength="8" fill="#0087af"> </text><text x="8" textLength="8" font-weight="bold" fill="#00afff">~</text><text x="16" textLength="8" fill="#0087af"> </text><text x="24" textLength="192" class="foreground"> echo 'See my prompt? Si</text><text x="216" textLength="8" class="background"> </text><text x="224" textLength="416" class="foreground">                                                    </text></g><g id="g20"><text x="0" textLength="8" fill="#0087af"> </text><text x="8" textLength="8" font-weight="bold" fill="#00afff">~</text><text x="16" textLength="8" fill="#0087af"> </text><text x="24" textLength="208" class="foreground"> echo 'See my prompt? Simp</text><text x="232" textLength="8" class="background"> </text><text x="240" textLength="400" class="foreground">                                                  </text></g><g id="g21"><text x="0" textLength="8" fill="#0087af"> </text><text x="8" textLength="8" font-weight="bold" fill="#00afff">~</text><text x="16" textLength="8" fill="#0087af"> </text><text x="24" textLength="224" class="foreground"> echo 'See my prompt? Simple</text><text x="248" textLength="8" class="background"> </text><text x="256" textLength="384" class="foreground">                                                </text></g><g id="g22"><text x="0" textLength="8" fill="#0087af"> </text><text x="8" textLength="8" font-weight="bold" fill="#00afff">~</text><text x="16" textLength="8" fill="#0087af"> </text><text x="24" textLength="240" class="foreground"> echo 'See my prompt? Simple, </text><text x="264" textLength="8" class="background"> </text><text x="272" textLength="368" class="foreground">                                              </text></g><g id="g23"><text x="0" textLength="8" fill="#0087af"> </text><text x="8" textLength="8" font-weight="bold" fill="#00afff">~</text><text x="16" textLength="8" fill="#0087af"> </text><text x="24" textLength="256" class="foreground"> echo 'See my prompt? Simple, ri</text><text x="280" textLength="8" class="background"> </text><text x="288" textLength="352" class="foreground">                                            </text></g><g id="g24"><text x="0" textLength="8" fill="#0087af"> </text><text x="8" textLength="8" font-weight="bold" fill="#00afff">~</text><text x="16" textLength="8" fill="#0087af"> </text><text x="24" textLength="264" class="foreground"> echo 'See my prompt? Simple, rig</text><text x="288" textLength="8" class="background"> </text><text x="296" textLength="344" class="foreground">                                           </text></g><g id="g25"><text x="0" textLength="8" fill="#0087af"> </text><text x="8" textLength="8" font-weight="bold" fill="#00afff">~</text><text x="16" textLength="8" fill="#0087af"> </text><text x="24" textLength="280" class="foreground"> echo 'See my prompt? Simple, right</text><text x="304" textLength="8" class="background"> </text><text x="312" textLength="328" class="foreground">                                         </text></g><g id="g26"><text x="0" textLength="8" fill="#0087af"> </text><text x="8" textLength="8" font-weight="bold" fill="#00afff">~</text><text x="16" textLength="8" fill="#0087af"> </text><text x="24" textLength="8" class="foreground"> </text><text x="32" textLength="32" class="color2">echo</text><text x="64" textLength="8" class="foreground"> </text><text x="72" textLength="248" class="color3">'See my prompt? Simple, right?'</text><text x="320" textLength="8" class="background"> </text><text x="328" textLength="312" class="foreground">                                       </text></g><g id="g27"><text x="0" textLength="8" fill="#0087af"> </text><text x="8" textLength="8" font-weight="bold" fill="#00afff">~</text><text x="16" textLength="8" fill="#0087af"> </text><text x="24" textLength="8" class="foreground"> </text><text x="32" textLength="32" class="color2">echo</text><text x="64" textLength="8" class="foreground"> </text><text x="72" textLength="248" class="color3">'See my prompt? Simple, right?'</text><text x="320" textLength="320" class="foreground">                                        </text></g><g id="g28"><text x="0" textLength="232" class="foreground">See my prompt? Simple, right?</text></g><g id="g29"><text x="0" textLength="640" class="foreground">                                                                                </text></g><g id="g30"><text x="0" textLength="8" fill="#0087af"> </text><text x="8" textLength="8" font-weight="bold" fill="#00afff">~</text><text x="16" textLength="8" fill="#0087af"> </text><text x="24" textLength="8" class="foreground"> </text><text x="32" textLength="480" class="background">sleep 3; echo 'Not so simple now. Look, a right prompt! -&gt; '</text><text x="512" textLength="128" class="foreground">                </text></g><g id="g31"><text x="0" textLength="8" fill="#0087af"> </text><text x="8" textLength="8" font-weight="bold" fill="#00afff">~</text><text x="16" textLength="8" fill="#0087af"> </text><text x="24" textLength="8" class="foreground"> </text><text x="32" textLength="40" class="color2">sleep</text><text x="72" textLength="32" class="foreground"> 3; </text><text x="104" textLength="32" class="color2">echo</text><text x="136" textLength="8" class="foreground"> </text><text x="144" textLength="368" class="color3">'Not so simple now. Look, a right prompt! -&gt; '</text><text x="512" textLength="128" class="foreground">                </text></g><g id="g32"><text x="0" textLength="352" class="foreground">Not so simple now. Look, a right prompt! -&gt; </text></g><g id="g33"><text x="0" textLength="8" fill="#0087af"> </text><text x="8" textLength="8" font-weight="bold" fill="#00afff">~</text><text x="16" textLength="8" fill="#0087af"> </text><text x="24" textLength="8" class="foreground"> </text><text x="32" textLength="8" class="background"> </text><text x="40" textLength="520" class="foreground">                                                                 </text><text x="560" textLength="8" fill="#a8a8a8"> </text><text x="568" textLength="40" fill="#949494">took </text><text x="608" textLength="24" fill="#a8a8a8">3s </text><text x="632" textLength="8" class="foreground"> </text></g><g id="g34"><text x="0" textLength="8" fill="#0087af"> </text><text x="8" textLength="8" font-weight="bold" fill="#00afff">~</text><text x="16" textLength="8" fill="#0087af"> </text><text x="24" textLength="536" class="foreground">                                                                   </text><text x="560" textLength="8" fill="#a8a8a8"> </text><text x="568" textLength="40" fill="#949494">took </text><text x="608" textLength="24" fill="#a8a8a8">3s </text><text x="632" textLength="8" class="foreground"> </text></g></defs><g id="screen_view"><g><rect x="0" y="0" width="24" height="17" fill="#303030"/><rect x="32" y="0" width="8" height="17" class="foreground"/><use xlink:href="#g1" y="0"/></g><g><rect x="0" y="442" width="24" height="17" fill="#303030"/><rect x="320" y="442" width="8" height="17" class="foreground"/><use xlink:href="#g2" y="442"/></g><g><rect x="0" y="884" width="24" height="17" fill="#303030"/><use xlink:href="#g3" y="884"/><rect x="0" y="901" width="8" height="17" class="foreground"/><use xlink:href="#g4" y="901"/></g><g><rect x="0" y="1326" width="24" height="17" fill="#303030"/><use xlink:href="#g3" y="1326"/></g><g><rect x="0" y="1768" width="8" height="17" class="foreground"/><use xlink:href="#g5" y="1768"/></g><g><rect x="0" y="2210" width="8" height="17" class="foreground"/><use xlink:href="#g5" y="2210"/></g><g><rect x="0" y="2652" width="24" height="17" fill="#303030"/><rect x="32" y="2652" width="8" height="17" class="foreground"/><use xlink:href="#g1" y="2652"/></g><g><rect x="0" y="3094" width="24" height="17" fill="#303030"/><rect x="32" y="3094" width="8" height="17" class="foreground"/><use xlink:href="#g1" y="3094"/></g><g><rect x="0" y="3536" width="24" height="17" fill="#303030"/><rect x="40" y="3536" width="8" height="17" class="foreground"/><use xlink:href="#g6" y="3536"/></g><g><rect x="0" y="3978" width="24" height="17" fill="#303030"/><rect x="56" y="3978" width="8" height="17" class="foreground"/><use xlink:href="#g7" y="3978"/></g><g><rect x="0" y="4420" width="24" height="17" fill="#303030"/><rect x="64" y="4420" width="8" height="17" class="foreground"/><use xlink:href="#g8" y="4420"/></g><g><rect x="0" y="4862" width="24" height="17" fill="#303030"/><rect x="80" y="4862" width="8" height="17" class="foreground"/><use xlink:href="#g9" y="4862"/></g><g><rect x="0" y="5304" width="24" height="17" fill="#303030"/><rect x="96" y="5304" width="8" height="17" class="foreground"/><use xlink:href="#g10" y="5304"/></g><g><rect x="0" y="5746" width="24" height="17" fill="#303030"/><rect x="112" y="5746" width="8" height="17" class="foreground"/><use xlink:href="#g11" y="5746"/></g><g><rect x="0" y="6188" width="24" height="17" fill="#303030"/><rect x="128" y="6188" width="8" height="17" class="foreground"/><use xlink:href="#g12" y="6188"/></g><g><rect x="0" y="6630" width="24" height="17" fill="#303030"/><rect x="136" y="6630" width="8" height="17" class="foreground"/><use xlink:href="#g13" y="6630"/></g><g><rect x="0" y="7072" width="24" height="17" fill="#303030"/><rect x="152" y="7072" width="8" height="17" class="foreground"/><use xlink:href="#g14" y="7072"/></g><g><rect x="0" y="7514" width="24" height="17" fill="#303030"/><rect x="160" y="7514" width="8" height="17" class="foreground"/><use xlink:href="#g15" y="7514"/></g><g><rect x="0" y="7956" width="24" height="17" fill="#303030"/><rect x="176" y="7956" width="8" height="17" class="foreground"/><use xlink:href="#g16" y="7956"/></g><g><rect x="0" y="8398" width="24" height="17" fill="#303030"/><rect x="192" y="8398" width="8" height="17" class="foreground"/><use xlink:href="#g17" y="8398"/></g><g><rect x="0" y="8840" width="24" height="17" fill="#303030"/><rect x="200" y="8840" width="8" height="17" class="foreground"/><use xlink:href="#g18" y="8840"/></g><g><rect x="0" y="9282" width="24" height="17" fill="#303030"/><rect x="216" y="9282" width="8" height="17" class="foreground"/><use xlink:href="#g19" y="9282"/></g><g><rect x="0" y="9724" width="24" height="17" fill="#303030"/><rect x="232" y="9724" width="8" height="17" class="foreground"/><use xlink:href="#g20" y="9724"/></g><g><rect x="0" y="10166" width="24" height="17" fill="#303030"/><rect x="248" y="10166" width="8" height="17" class="foreground"/><use xlink:href="#g21" y="10166"/></g><g><rect x="0" y="10608" width="24" height="17" fill="#303030"/><rect x="264" y="10608" width="8" height="17" class="foreground"/><use xlink:href="#g22" y="10608"/></g><g><rect x="0" y="11050" width="24" height="17" fill="#303030"/><rect x="280" y="11050" width="8" height="17" class="foreground"/><use xlink:href="#g23" y="11050"/></g><g><rect x="0" y="11492" width="24" height="17" fill="#303030"/><rect x="288" y="11492" width="8" height="17" class="foreground"/><use xlink:href="#g24" y="11492"/></g><g><rect x="0" y="11934" width="24" height="17" fill="#303030"/><rect x="304" y="11934" width="8" height="17" class="foreground"/><use xlink:href="#g25" y="11934"/></g><g><rect x="0" y="12376" width="24" height="17" fill="#303030"/><rect x="320" y="12376" width="8" height="17" class="foreground"/><use xlink:href="#g2" y="12376"/></g><g><rect x="0" y="12818" width="24" height="17" fill="#303030"/><rect x="320" y="12818" width="8" height="17" class="foreground"/><use xlink:href="#g26" y="12818"/></g><g><rect x="0" y="13260" width="24" height="17" fill="#303030"/><use xlink:href="#g27" y="13260"/><rect x="0" y="13277" width="8" height="17" class="foreground"/><use xlink:href="#g4" y="13277"/></g><g><rect x="0" y="13702" width="24" height="17" fill="#303030"/><use xlink:href="#g27" y="13702"/><rect x="0" y="13719" width="8" height="17" class="foreground"/><use xlink:href="#g4" y="13719"/></g><g><rect x="0" y="14144" width="24" height="17" fill="#303030"/><use xlink:href="#g27" y="14144"/><use xlink:href="#g28" y="14161"/><rect x="0" y="14178" width="8" height="17" class="foreground"/><use xlink:href="#g5" y="14178"/></g><g><rect x="0" y="14586" width="24" height="17" fill="#303030"/><use xlink:href="#g27" y="14586"/><use xlink:href="#g28" y="14603"/><use xlink:href="#g29" y="14620"/><rect x="0" y="14637" width="8" height="17" class="foreground"/><use xlink:href="#g4" y="14637"/></g><g><rect x="0" y="15028" width="24" height="17" fill="#303030"/><use xlink:href="#g27" y="15028"/><use xlink:href="#g28" y="15045"/><use xlink:href="#g29" y="15062"/><rect x="0" y="15079" width="24" height="17" fill="#303030"/><rect x="32" y="15079" width="8" height="17" class="foreground"/><use xlink:href="#g1" y="15079"/></g><g><rect x="0" y="15470" width="24" height="17" fill="#303030"/><use xlink:href="#g27" y="15470"/><use xlink:href="#g28" y="15487"/><use xlink:href="#g29" y="15504"/><rect x="0" y="15521" width="24" height="17" fill="#303030"/><rect x="32" y="15521" width="8" height="17" class="foreground"/><use xlink:href="#g1" y="15521"/></g><g><rect x="0" y="15912" width="24" height="17" fill="#303030"/><use xlink:href="#g27" y="15912"/><use xlink:href="#g28" y="15929"/><use xlink:href="#g29" y="15946"/><rect x="0" y="15963" width="24" height="17" fill="#303030"/><rect x="32" y="15963" width="8" height="17" class="foreground"/><use xlink:href="#g1" y="15963"/></g><g><rect x="0" y="16354" width="24" height="17" fill="#303030"/><use xlink:href="#g27" y="16354"/><use xlink:href="#g28" y="16371"/><use xlink:href="#g29" y="16388"/><rect x="0" y="16405" width="24" height="17" fill="#303030"/><rect x="32" y="16405" width="480" height="17" class="foreground"/><use xlink:href="#g30" y="16405"/><rect x="0" y="16422" width="8" height="17" class="foreground"/><use xlink:href="#g5" y="16422"/></g><g><rect x="0" y="16796" width="24" height="17" fill="#303030"/><use xlink:href="#g27" y="16796"/><use xlink:href="#g28" y="16813"/><use xlink:href="#g29" y="16830"/><rect x="0" y="16847" width="24" height="17" fill="#303030"/><use xlink:href="#g31" y="16847"/><rect x="0" y="16864" width="8" height="17" class="foreground"/><use xlink:href="#g5" y="16864"/></g><g><rect x="0" y="17238" width="24" height="17" fill="#303030"/><use xlink:href="#g27" y="17238"/><use xlink:href="#g28" y="17255"/><use xlink:href="#g29" y="17272"/><rect x="0" y="17289" width="24" height="17" fill="#303030"/><use xlink:href="#g31" y="17289"/><rect x="0" y="17306" width="8" height="17" class="foreground"/><use xlink:href="#g5" y="17306"/></g><g><rect x="0" y="17680" width="24" height="17" fill="#303030"/><use xlink:href="#g27" y="17680"/><use xlink:href="#g28" y="17697"/><use xlink:href="#g29" y="17714"/><rect x="0" y="17731" width="24" height="17" fill="#303030"/><use xlink:href="#g31" y="17731"/><use xlink:href="#g29" y="17748"/><rect x="0" y="17765" width="8" height="17" class="foreground"/><use xlink:href="#g4" y="17765"/></g><g><rect x="0" y="18122" width="24" height="17" fill="#303030"/><use xlink:href="#g27" y="18122"/><use xlink:href="#g28" y="18139"/><use xlink:href="#g29" y="18156"/><rect x="0" y="18173" width="24" height="17" fill="#303030"/><use xlink:href="#g31" y="18173"/><use xlink:href="#g29" y="18190"/><rect x="0" y="18207" width="8" height="17" class="foreground"/><use xlink:href="#g4" y="18207"/></g><g><rect x="0" y="18564" width="24" height="17" fill="#303030"/><use xlink:href="#g27" y="18564"/><use xlink:href="#g28" y="18581"/><use xlink:href="#g29" y="18598"/><rect x="0" y="18615" width="24" height="17" fill="#303030"/><use xlink:href="#g31" y="18615"/><use xlink:href="#g29" y="18632"/><use xlink:href="#g32" y="18649"/><rect x="0" y="18666" width="8" height="17" class="foreground"/><use xlink:href="#g4" y="18666"/></g><g><rect x="0" y="19006" width="24" height="17" fill="#303030"/><use xlink:href="#g27" y="19006"/><use xlink:href="#g28" y="19023"/><use xlink:href="#g29" y="19040"/><rect x="0" y="19057" width="24" height="17" fill="#303030"/><use xlink:href="#g31" y="19057"/><use xlink:href="#g29" y="19074"/><use xlink:href="#g32" y="19091"/><rect x="0" y="19108" width="8" height="17" class="foreground"/><use xlink:href="#g5" y="19108"/></g><g><rect x="0" y="19448" width="24" height="17" fill="#303030"/><use xlink:href="#g27" y="19448"/><use xlink:href="#g28" y="19465"/><use xlink:href="#g29" y="19482"/><rect x="0" y="19499" width="24" height="17" fill="#303030"/><use xlink:href="#g31" y="19499"/><use xlink:href="#g29" y="19516"/><use xlink:href="#g32" y="19533"/><use xlink:href="#g29" y="19550"/><rect x="0" y="19567" width="8" height="17" class="foreground"/><use xlink:href="#g4" y="19567"/></g><g><rect x="0" y="19890" width="24" height="17" fill="#303030"/><use xlink:href="#g27" y="19890"/><use xlink:href="#g28" y="19907"/><use xlink:href="#g29" y="19924"/><rect x="0" y="19941" width="24" height="17" fill="#303030"/><use xlink:href="#g31" y="19941"/><use xlink:href="#g29" y="19958"/><use xlink:href="#g32" y="19975"/><use xlink:href="#g29" y="19992"/><rect x="0" y="20009" width="24" height="17" fill="#303030"/><rect x="32" y="20009" width="8" height="17" class="foreground"/><rect x="560" y="20009" width="72" height="17" fill="#303030"/><use xlink:href="#g33" y="20009"/></g><g><rect x="0" y="20332" width="24" height="17" fill="#303030"/><use xlink:href="#g27" y="20332"/><use xlink:href="#g28" y="20349"/><use xlink:href="#g29" y="20366"/><rect x="0" y="20383" width="24" height="17" fill="#303030"/><use xlink:href="#g31" y="20383"/><use xlink:href="#g29" y="20400"/><use xlink:href="#g32" y="20417"/><use xlink:href="#g29" y="20434"/><rect x="0" y="20451" width="24" height="17" fill="#303030"/><rect x="32" y="20451" width="8" height="17" class="foreground"/><rect x="560" y="20451" width="72" height="17" fill="#303030"/><use xlink:href="#g33" y="20451"/></g><g><rect x="0" y="20774" width="24" height="17" fill="#303030"/><use xlink:href="#g27" y="20774"/><use xlink:href="#g28" y="20791"/><use xlink:href="#g29" y="20808"/><rect x="0" y="20825" width="24" height="17" fill="#303030"/><use xlink:href="#g31" y="20825"/><use xlink:href="#g29" y="20842"/><use xlink:href="#g32" y="20859"/><use xlink:href="#g29" y="20876"/><rect x="0" y="20893" width="24" height="17" fill="#303030"/><rect x="560" y="20893" width="72" height="17" fill="#303030"/><use xlink:href="#g34" y="20893"/><rect x="0" y="20910" width="8" height="17" class="foreground"/><use xlink:href="#g4" y="20910"/></g></g></svg>
</svg>